<svg xmlns="http://www.w3.org/2000/svg" viewBox="0 0 59.2 59.2"><path d="M47.7 18c-4.3-3.4-10.4-2.4-15.2-1.3 -0.8 0.2-1.6 0.3-2.4 0.3 -0.1-0.6-0.3-1.3-0.5-1.9l3.7-0.6c4.8-0.7 8.5-4.4 9.2-9.2l0.6-3.7c0-0.1 0.1-0.3 0.1-0.4L43.4 0l-5.4 0.8c-4.8 0.7-8.5 4.4-9.2 9.2l-0.3 2.2c-1.1-2.1-2.7-4-4.9-5.2 -0.5-0.3-1.1-0.1-1.4 0.4 -0.3 0.5-0.1 1.1 0.4 1.4 3.1 1.6 4.7 4.9 5.5 8.2 -0.5-0.1-0.9-0.1-1.4-0.3 -4.8-1.2-10.9-2.1-15.2 1.3 -3.9 3-5.7 9-5.7 18.4 0 6.9 4 14.8 9.6 19.3 3.7 3 7.7 4.1 11.6 3.2 1.7-0.4 3.5-0.4 5.1 0 0.9 0.2 1.7 0.3 2.6 0.3 3 0 6.1-1.2 9-3.5 5.6-4.5 9.6-12.4 9.6-19.3C53.4 27.1 51.6 21 47.7 18zM33.1 12.6l-0.9 0.1 8.5-8.5 -0.1 0.9C40 9 37 12 33.1 12.6zM38.3 2.8l1.3-0.2 -9 9 0.2-1.3C31.3 6.4 34.3 3.4 38.3 2.8zM42.5 54.1c-2.3 1.8-5.8 3.7-9.9 2.8 -1-0.2-2-0.3-3-0.3 -1 0-2 0.1-3 0.3 -4.1 0.9-7.6-1-9.9-2.8 -5.1-4.1-8.9-11.5-8.9-17.8 0-8.7 1.6-14.2 4.9-16.8 2.8-2.2 7-2.5 13.5-0.9 0.7 0.2 1.5 0.3 2.2 0.3 0.1 0.5 0.1 1 0.1 1.5 0 0.5 0.5 1 1 1 0 0 0 0 0 0 0.6 0 1-0.5 1-1 0-0.5-0.1-0.9-0.1-1.4 0.9 0 1.7-0.2 2.6-0.4 6.5-1.6 10.7-1.3 13.5 0.9 3.3 2.6 4.9 8.1 4.9 16.8C51.4 42.6 47.6 50.1 42.5 54.1z"/><path d="M19.8 20.2c-5 0-9 4.5-9 10 0 0.6 0.4 1 1 1s1-0.4 1-1c0-4.4 3.1-8 7-8 0.6 0 1-0.4 1-1S20.3 20.2 19.8 20.2z"/><path d="M32.5 20.5c-0.8 0.8-1.9 1.3-3 1.3s-2.2-0.4-3-1.3c-0.4-0.4-1-0.4-1.4 0s-0.4 1 0 1.4c1.2 1.2 2.8 1.8 4.5 1.8s3.3-0.7 4.4-1.8c0.4-0.4 0.4-1 0-1.4C33.5 20.1 32.9 20.1 32.5 20.5z"/></svg>