<svg xmlns="http://www.w3.org/2000/svg" viewBox="0 0 56.7 56.7"><path d="M31.5 16.2c-2.1 0.5-4.2 0.5-6.3 0 -10.8-2.7-19.8-1.6-19.7 18.6 0.1 10.4 9.8 23.9 20 21.6 1.8-0.4 3.8-0.4 5.6 0 10.2 2.3 20-11.2 20-21.6C51.2 14.6 42.2 13.6 31.5 16.2z" fill="#D13834"/><path d="M10.5 29.7c-0.6 0-1-0.4-1-1 0-5.5 4-10 9-10 0.6 0 1 0.4 1 1s-0.4 1-1 1c-3.9 0-7 3.6-7 8C11.5 29.2 11.1 29.7 10.5 29.7z" fill="#F75B57"/><path d="M28.3 20c-0.5 0-1-0.4-1-1 -0.1-4.2-1.8-9.5-5.9-11.8 -0.5-0.3-0.7-0.9-0.4-1.4 0.3-0.5 0.9-0.7 1.4-0.4 4.9 2.6 6.8 8.7 7 13.5 0 0.6-0.4 1-1 1C28.3 20 28.3 20 28.3 20z" fill="#4C312C"/><path d="M28.2 23.6c-1.7 0-3.3-0.7-4.4-1.8 -0.4-0.4-0.4-1 0-1.4s1-0.4 1.4 0c0.8 0.8 1.9 1.3 3 1.3s2.2-0.4 3-1.3c0.4-0.4 1-0.4 1.4 0 0.4 0.4 0.4 1 0 1.4C31.4 22.9 29.9 23.6 28.2 23.6z" fill="#994530"/><path d="M27.3 13l0.6-4.1c0.6-4.3 4-7.7 8.3-8.3L40.3 0l-0.6 4.1c-0.6 4.3-4 7.7-8.3 8.3L27.3 13z" fill="#659C35"/></svg>
