<svg xmlns="http://www.w3.org/2000/svg" viewBox="0 0 56.7 56.7"><style>.a{fill:#88C057;}.b{fill:#659C35;}</style><path d="M45.1 13.7c0-1-0.6-1.9-1.4-2.3 0.4-0.8 0.6-1.7 0.6-2.6 0-3.4-2.8-6.1-6.2-6.1 -0.9 0-1.7 0.2-2.5 0.5 -0.9-1.2-2.4-2-4.1-2 -1.9 0-3.5 1-4.4 2.6 -0.9-0.7-2.1-1-3.3-1 -3.2 0-5.8 2.5-5.8 5.7 0 0.2 0 0.5 0 0.7 -2.3 0.8-3.9 2.9-3.9 5.4 0 1.9 1 3.7 2.5 4.7 -0.6 0.8-1 1.8-1 2.9 0 2.7 2.2 4.9 5 4.9 1.2 0 2.2-0.4 3.1-1 1.1 1.5 3 2.6 5 2.6 2.2 0 4.1-1.1 5.2-2.8 0.7 1.2 2.1 2.1 3.7 2.1 2.3 0 4.2-1.9 4.2-4.2 0-0.5-0.1-1-0.3-1.5 1.5-0.6 2.6-2.1 2.6-3.8 0-0.8-0.2-1.6-0.7-2.2C44.6 15.6 45.1 14.7 45.1 13.7z" class="a"/><path d="M22.8 26.5c-0.6 0.3-1.3 0.4-2 0.4 -2.8 0-5-2.2-5-4.9 0-1.1 0.4-2.1 1-2.9 -1.5-1-2.5-2.7-2.5-4.7 0-0.9 0.2-1.8 0.6-2.6 -1.7-1-3.8-0.8-5.3 0.6 -0.1 0.1-0.2 0.3-0.3 0.4 -1.6-0.8-3.6-0.5-4.9 0.8 -1 1-1.4 2.4-1.2 3.8C2.4 17.5 1.7 17.9 1.1 18.5c-1.5 1.4-1.5 3.8 0 5.2 0.6 0.6 1.4 0.9 2.2 1 -0.2 1.4 0.2 2.9 1.3 3.9 1.2 1.1 2.8 1.5 4.3 1.2 -0.3 1 0 2.2 0.8 3 1.2 1.2 3.2 1.2 4.5 0 0.3-0.3 0.5-0.6 0.6-0.9 1.1 0.5 2.5 0.2 3.4-0.7 0.4-0.4 0.7-1 0.8-1.5 0.7 0.2 1.5 0 2-0.5 0.5-0.5 0.7-1.3 0.5-1.9C22 27.1 22.4 26.9 22.8 26.5z" class="b"/><path d="M55.5 19.2c-0.1-0.1-0.3-0.2-0.4-0.3 0.8-1.6 0.5-3.5-0.8-4.8 -1-1-2.5-1.4-3.8-1.2 -0.1-0.7-0.5-1.5-1-2 -1.5-1.4-3.8-1.4-5.3 0 -0.1 0.1-0.2 0.2-0.3 0.3 0 0.1-0.1 0.2-0.1 0.2 0.8 0.5 1.4 1.3 1.4 2.3 0 1-0.6 1.9-1.4 2.3 0.4 0.6 0.7 1.4 0.7 2.2 0 1.7-1.1 3.2-2.6 3.8 0.2 0.5 0.3 1 0.3 1.5 0 2.3-1.9 4.2-4.2 4.2 -0.5 0-1.1-0.1-1.6-0.3 0.1 0.1 0.1 0.1 0.1 0.2 0.4 0.4 1 0.7 1.5 0.8 -0.2 0.7 0 1.4 0.5 2 0.5 0.5 1.3 0.7 2 0.5 0.2 0.6 0.6 1.2 1.1 1.7 1.8 1.8 4.7 1.8 6.5 0 0.5-0.5 0.8-1 1-1.6 1.1 0.2 2.3-0.2 3.2-1 1-1 1.3-2.4 0.9-3.6 0.8-0.1 1.7-0.5 2.3-1.2C57.2 23.6 57.2 20.9 55.5 19.2z" class="b"/><path d="M40.4 30.9c-0.7 0.2-1.4 0-2-0.5 -0.3-0.3-0.5-0.7-0.6-1.1 0-0.2-0.1-0.4-0.2-0.6 -3.9 4-6.7 11.5-6.7 11.5 1.3-4.6 1.1-9.2 0.7-12.3 -0.8 0.4-1.8 0.6-2.8 0.6 -1 0-1.9-0.2-2.7-0.6 1.8 6.2 0.8 16.3 0.8 16.3 -1.9-7.5-6-12.2-7.9-14.1 -0.1 0.1-0.3 0.2-0.4 0.4 -0.1 0.3-0.3 0.5-0.5 0.7 -0.9 0.9-2.3 1.1-3.4 0.7 -0.2 0.3-0.4 0.6-0.6 0.9 -0.3 0.3-0.7 0.6-1.1 0.7 5 0 10.8 10 11.5 20.7 0.1 0.8 0.7 1.4 1.5 1.4h5c0.8 0 1.4-0.6 1.5-1.3 0.5-4.1 1.9-21 9.7-21 -0.3-0.2-0.5-0.4-0.8-0.6C41 32.1 40.6 31.5 40.4 30.9z" fill="#436B1C"/><path d="M23.5 15.2c-0.1 0-0.2 0-0.4-0.1 -2.5-1-3.8-3.8-2.8-6.3 1-2.5 3.8-3.8 6.4-2.8 0.5 0.2 0.8 0.8 0.6 1.3 -0.2 0.5-0.8 0.8-1.3 0.6 -1.5-0.6-3.2 0.2-3.8 1.6 -0.6 1.5 0.2 3.2 1.6 3.8 0.5 0.2 0.8 0.8 0.6 1.3C24.2 14.9 23.9 15.2 23.5 15.2z" class="b"/><path d="M49.1 25.6c-0.6 0-1.2-0.1-1.8-0.3 -1.2-0.5-2.2-1.4-2.7-2.6 -0.2-0.5 0-1.1 0.5-1.3 0.5-0.2 1.1 0 1.3 0.5 0.3 0.7 0.9 1.3 1.6 1.5 0.7 0.3 1.5 0.3 2.2 0 0.7-0.3 1.3-0.9 1.5-1.6 0.3-0.7 0.3-1.5 0-2.2 -0.2-0.5 0-1.1 0.5-1.3 0.5-0.2 1.1 0 1.3 0.5 0.5 1.2 0.6 2.5 0.1 3.8s-1.4 2.2-2.6 2.7C50.4 25.5 49.8 25.6 49.1 25.6z" class="a"/><path d="M35.4 23.2c-1.7 0-3.4-0.9-4.3-2.5 -0.3-0.5-0.1-1.1 0.4-1.4 0.5-0.3 1.1-0.1 1.4 0.4 0.4 0.7 1 1.2 1.8 1.4 0.7 0.2 1.5 0.1 2.2-0.3s1.2-1 1.4-1.7c0.2-0.7 0.1-1.5-0.3-2.2 -0.3-0.5-0.1-1.1 0.4-1.4 0.5-0.3 1.1-0.1 1.4 0.4 0.6 1.1 0.8 2.5 0.5 3.7s-1.2 2.3-2.3 3C37 23 36.2 23.2 35.4 23.2z" class="b"/><path d="M31.9 17.8c-0.7 0-1.4-0.2-2.1-0.5 -2.4-1.2-3.5-4.1-2.3-6.5 0.2-0.5 0.8-0.7 1.3-0.5 0.5 0.2 0.7 0.8 0.5 1.3 -0.7 1.4-0.1 3.2 1.3 3.9 1.4 0.7 3.2 0.1 3.9-1.3 0.2-0.5 0.8-0.7 1.3-0.5 0.5 0.2 0.7 0.8 0.5 1.3C35.5 16.8 33.7 17.8 31.9 17.8z" class="b"/><path d="M24.3 23.4c-0.7 0-1.3-0.1-2-0.4 -2.5-1.1-3.6-4-2.5-6.5 0.2-0.5 0.8-0.7 1.3-0.5 0.5 0.2 0.7 0.8 0.5 1.3 -0.6 1.5 0 3.2 1.5 3.8 0.7 0.3 1.5 0.3 2.2 0 0.7-0.3 1.3-0.8 1.6-1.5 0.2-0.5 0.8-0.7 1.3-0.5 0.5 0.2 0.7 0.8 0.5 1.3 -0.5 1.2-1.5 2.1-2.7 2.6C25.5 23.3 24.9 23.4 24.3 23.4z" class="b"/><path d="M35.4 12.5c-0.2 0-0.3 0-0.5 0 -1.3-0.1-2.5-0.7-3.3-1.8 -0.4-0.4-0.3-1.1 0.1-1.4 0.4-0.4 1.1-0.3 1.4 0.1 0.5 0.6 1.2 1 2 1 0.8 0.1 1.5-0.2 2.1-0.6 1.2-1 1.4-2.9 0.4-4.1 -0.4-0.4-0.3-1.1 0.1-1.4 0.4-0.4 1.1-0.3 1.4 0.1 1.7 2.1 1.4 5.2-0.7 6.9C37.6 12.1 36.5 12.5 35.4 12.5z" class="b"/><path d="M9.9 24.5c-0.6 0-1.2-0.1-1.8-0.4 -2.5-1-3.7-3.9-2.7-6.4 0.2-0.5 0.8-0.8 1.3-0.6 0.5 0.2 0.8 0.8 0.6 1.3 -0.6 1.5 0.1 3.2 1.6 3.8 1.5 0.6 3.2-0.1 3.8-1.6 0.2-0.5 0.8-0.8 1.3-0.6 0.5 0.2 0.8 0.8 0.6 1.3C13.7 23.4 11.8 24.5 9.9 24.5z" class="a"/></svg>