<svg xmlns="http://www.w3.org/2000/svg" viewBox="0 0 58.7 58.7"><path d="M24.1 16.1c0.1 0 0.2 0.1 0.4 0.1 0.4 0 0.8-0.2 0.9-0.6 0.2-0.5-0.1-1.1-0.6-1.3 -1.5-0.6-2.2-2.3-1.6-3.8 0.6-1.5 2.3-2.2 3.8-1.6 0.5 0.2 1.1-0.1 1.3-0.6s-0.1-1.1-0.6-1.3c-2.5-1-5.4 0.3-6.4 2.8C20.3 12.3 21.6 15.1 24.1 16.1z"/><path d="M53.3 19.3c-0.5 0.2-0.7 0.8-0.5 1.3 0.3 0.7 0.3 1.5 0 2.2 -0.3 0.7-0.8 1.3-1.5 1.6s-1.5 0.3-2.2 0c-0.7-0.3-1.3-0.8-1.6-1.5 -0.2-0.5-0.8-0.7-1.3-0.5 -0.5 0.2-0.7 0.8-0.5 1.3 0.5 1.2 1.5 2.1 2.7 2.6 0.6 0.2 1.2 0.3 1.8 0.3 0.7 0 1.3-0.1 2-0.4 1.2-0.5 2.1-1.5 2.6-2.7s0.4-2.6-0.1-3.8C54.4 19.3 53.8 19 53.3 19.3z"/><path d="M39.3 16.5c-0.5 0.3-0.6 0.9-0.4 1.4 0.4 0.7 0.5 1.5 0.3 2.2 -0.2 0.7-0.7 1.4-1.4 1.8s-1.5 0.5-2.2 0.3c-0.7-0.2-1.4-0.7-1.7-1.4 -0.3-0.5-0.9-0.6-1.4-0.4 -0.5 0.3-0.6 0.9-0.4 1.4 0.9 1.6 2.6 2.5 4.3 2.5 0.8 0 1.6-0.2 2.4-0.6 1.1-0.6 2-1.7 2.3-3s0.2-2.6-0.5-3.7C40.4 16.4 39.8 16.2 39.3 16.5z"/><path d="M30.8 18.3c0.7 0.3 1.4 0.5 2.1 0.5 1.8 0 3.6-1 4.4-2.8 0.2-0.5 0-1.1-0.5-1.3 -0.5-0.2-1.1 0-1.3 0.5 -0.7 1.4-2.4 2-3.9 1.3 -1.4-0.7-2-2.4-1.3-3.9 0.2-0.5 0-1.1-0.5-1.3 -0.5-0.2-1.1 0-1.3 0.5C27.3 14.2 28.3 17.1 30.8 18.3z"/><path d="M23.3 24c0.6 0.3 1.3 0.4 2 0.4 0.6 0 1.2-0.1 1.8-0.3 1.2-0.5 2.2-1.4 2.7-2.6 0.2-0.5 0-1.1-0.5-1.3 -0.5-0.2-1.1 0-1.3 0.5 -0.3 0.7-0.9 1.3-1.6 1.5 -0.7 0.3-1.5 0.3-2.2 0 -1.5-0.6-2.1-2.4-1.5-3.8 0.2-0.5 0-1.1-0.5-1.3 -0.5-0.2-1.1 0-1.3 0.5C19.7 20 20.8 22.9 23.3 24z"/><path d="M35.9 13.5c0.2 0 0.3 0 0.5 0 1.1 0 2.2-0.4 3.1-1.1 2.1-1.7 2.4-4.8 0.7-6.9 -0.4-0.4-1-0.5-1.4-0.1 -0.4 0.4-0.5 1-0.1 1.4 1 1.2 0.8 3.1-0.4 4.1 -0.6 0.5-1.3 0.7-2.1 0.7 -0.8-0.1-1.5-0.4-2-1 -0.4-0.4-1-0.5-1.4-0.1 -0.4 0.4-0.5 1-0.1 1.4C33.4 12.7 34.6 13.3 35.9 13.5z"/><path d="M15.4 22.5c0.2-0.5 0-1.1-0.6-1.3 -0.5-0.2-1.1 0-1.3 0.6 -0.6 1.5-2.3 2.2-3.8 1.6 -1.5-0.6-2.2-2.3-1.6-3.8 0.2-0.5 0-1.1-0.6-1.3 -0.5-0.2-1.1 0-1.3 0.6 -1 2.5 0.2 5.4 2.7 6.4 0.6 0.2 1.2 0.4 1.8 0.4C12.8 25.5 14.7 24.4 15.4 22.5z"/><path d="M57.3 19.6c0.6-1.8 0.1-3.9-1.3-5.3 -1-1-2.4-1.5-3.8-1.5 -0.2-0.6-0.6-1.2-1.1-1.7 -1.3-1.3-3.1-1.6-4.7-1.1 0-0.1 0-0.2 0-0.3 0-3.9-3.2-7.1-7.2-7.1 -0.8 0-1.5 0.1-2.2 0.3 -1.1-1.2-2.7-1.9-4.4-1.9 -1.8 0-3.6 0.8-4.7 2.2 -0.9-0.5-2-0.7-3-0.7 -3.7 0-6.8 3-6.8 6.7 0 0 0 0 0 0 -1 0.5-1.9 1.2-2.6 2.1 -1.9-0.7-4-0.3-5.5 1.1 -1.9-0.6-3.9-0.1-5.4 1.3 -1 1-1.6 2.3-1.6 3.7 -0.6 0.2-1.2 0.6-1.7 1.1C0.5 19.6 0 20.8 0 22s0.5 2.4 1.4 3.3c0.5 0.5 1.1 0.9 1.8 1.1 0 1.4 0.6 2.8 1.6 3.9 1 1 2.4 1.6 3.9 1.6 0.1 1 0.5 1.9 1.2 2.6 0.8 0.8 1.9 1.2 2.9 1.2 0.4 0 0.8-0.1 1.2-0.2 4.1 0.1 9.7 9.2 10.4 19.7 0.1 1.3 1.2 2.3 2.5 2.3h5c1.3 0 2.3-1 2.5-2.2l0.1-0.7c1.4-12.7 4.2-19.2 8.5-19.4 0.8 0.5 1.8 0.7 2.7 0.7 1.4 0 2.9-0.5 3.9-1.6 0.4-0.4 0.7-0.8 0.9-1.2 1.2 0 2.4-0.5 3.3-1.4 1-1 1.5-2.3 1.4-3.6 0.7-0.3 1.3-0.7 1.9-1.2 1-1 1.6-2.3 1.6-3.7C58.7 21.9 58.2 20.6 57.3 19.6zM19.5 11c0.5-0.2 0.7-0.6 0.7-1.1 0-0.2 0-0.4 0-0.6 0-2.6 2.2-4.7 4.8-4.7 1 0 1.9 0.3 2.8 0.9 0.2 0.2 0.5 0.2 0.8 0.2 0.3-0.1 0.5-0.2 0.6-0.5 0.7-1.3 2.1-2 3.5-2 1.3 0 2.5 0.6 3.3 1.6 0.3 0.4 0.8 0.5 1.2 0.3 0.7-0.3 1.4-0.4 2.1-0.4 2.9 0 5.2 2.3 5.2 5.1 0 0.7-0.1 1.4-0.4 2 0 0 0 0 0 0l-0.1 0.2c0 0 0 0 0 0 0 0 0 0 0 0l0 0c0 0 0 0.1 0 0.1 0 0.1-0.1 0.2-0.1 0.3 0 0 0 0 0 0.1 0 0.1 0 0.2 0 0.3 0 0 0 0.1 0 0.1 0 0.1 0.1 0.2 0.1 0.2 0.1 0.1 0.2 0.2 0.3 0.2 0.5 0.3 0.9 0.8 0.9 1.4 0 0.6-0.3 1.2-0.9 1.4 -0.2 0.1-0.4 0.4-0.5 0.6 -0.1 0.3 0 0.6 0.1 0.8 0.3 0.5 0.5 1.1 0.5 1.7 0 1.3-0.8 2.4-2 2.9 -0.5 0.2-0.7 0.8-0.5 1.3 0.1 0.4 0.2 0.7 0.2 1.1 0 1.8-1.5 3.2-3.2 3.2 -0.2 0-0.4 0-0.5-0.1 0 0-0.1 0-0.1 0 -0.2 0-0.4-0.1-0.5-0.2l0 0c-0.7-0.3-1.2-0.7-1.6-1.4 -0.2-0.3-0.5-0.5-0.8-0.5 -0.4 0-0.7 0.2-0.9 0.5 -0.5 0.8-1.3 1.5-2.2 1.9 -0.1 0.1-0.3 0.1-0.4 0.2 -0.1 0-0.1 0-0.2 0.1 -0.1 0-0.2 0.1-0.4 0.1 -0.1 0-0.2 0-0.3 0.1 -0.1 0-0.2 0-0.3 0.1 -0.2 0-0.4 0-0.6 0 -0.1 0-0.3 0-0.4 0 0 0-0.1 0-0.1 0 -0.2 0-0.3 0-0.5-0.1 0 0-0.1 0-0.1 0 -0.2 0-0.3-0.1-0.5-0.1 0 0 0 0 0 0 -0.2-0.1-0.4-0.1-0.5-0.2l0 0c-0.8-0.4-1.5-0.9-2-1.6 -0.2-0.2-0.4-0.4-0.7-0.4 0 0-0.1 0-0.1 0 -0.2 0-0.4 0.1-0.6 0.2 -0.3 0.2-0.5 0.3-0.8 0.5 0 0 0 0 0 0 -0.3 0.1-0.5 0.2-0.8 0.3 0 0 0 0 0 0 -0.3 0.1-0.5 0.1-0.8 0.1 -2.2 0-4-1.8-4-3.9 0-0.8 0.3-1.6 0.8-2.3 0.2-0.2 0.2-0.5 0.2-0.8 0-0.3-0.2-0.5-0.4-0.7 -1.3-0.9-2.1-2.3-2.1-3.9 0-0.2 0-0.5 0.1-0.7 0-0.1 0-0.1 0-0.2 0-0.2 0.1-0.3 0.1-0.5 0-0.1 0-0.1 0.1-0.2 0.1-0.2 0.1-0.3 0.2-0.5 0 0 0-0.1 0-0.1C17.3 12.3 18.3 11.4 19.5 11zM33.7 29.4c0.5-0.3 1-0.7 1.4-1.1 0.4 0.4 0.9 0.7 1.4 1 0 0 0.1 0.1 0.1 0.1 0.2 0.2 0.3 0.3 0.5 0.4 -1.2 1.4-2.3 3.1-3.3 4.8C34 32.6 33.9 30.9 33.7 29.4zM27.3 39.9c-1.7-3.8-3.8-6.6-5.4-8.4 0.3-0.1 0.6-0.3 0.9-0.6 0.6-0.5 0.9-1.3 0.9-2 0.2-0.1 0.5-0.3 0.7-0.5 0.1-0.1 0.3-0.1 0.4-0.2 0.5 0.5 1.1 1 1.7 1.3C27.2 32.7 27.3 36.7 27.3 39.9zM11.3 33.1c-0.5-0.5-0.7-1.3-0.6-2 0.1-0.3 0-0.7-0.2-0.9 -0.2-0.2-0.5-0.3-0.7-0.3 -0.1 0-0.1 0-0.2 0 -1.2 0.3-2.5-0.1-3.3-0.9 -0.8-0.8-1.2-1.9-1-3.1 0-0.3 0-0.5-0.2-0.8 -0.2-0.2-0.4-0.4-0.7-0.4 -0.6-0.1-1.2-0.3-1.6-0.8C2.3 23.4 2 22.8 2 22c0-0.7 0.3-1.4 0.8-1.9 0.4-0.4 0.9-0.7 1.5-0.8 0.3 0 0.5-0.2 0.7-0.4 0.2-0.2 0.2-0.5 0.2-0.8 -0.2-1 0.1-2.1 0.9-2.9 1-1 2.5-1.2 3.8-0.6 0.4 0.2 0.9 0.1 1.2-0.3 0.1-0.1 0.2-0.2 0.3-0.3 0.9-0.9 2.1-1.1 3.3-0.8 0 0 0 0.1 0 0.1 -0.1 0.2-0.1 0.5-0.2 0.7 0 0.1 0 0.2-0.1 0.3 -0.1 0.3-0.1 0.7-0.1 1 0 1.9 0.8 3.7 2.2 4.9 -0.4 0.8-0.6 1.7-0.6 2.7 0 0.2 0 0.4 0 0.6 0 0.1 0 0.1 0 0.2 0 0.1 0 0.3 0.1 0.4 0 0.1 0 0.2 0.1 0.2 0 0.1 0.1 0.2 0.1 0.3 0 0.1 0.1 0.2 0.1 0.2 0 0.1 0.1 0.2 0.1 0.3 0 0.1 0.1 0.2 0.1 0.2 0 0.1 0.1 0.2 0.1 0.3 0 0.1 0.1 0.2 0.1 0.2 0.1 0.1 0.1 0.2 0.2 0.3 0.1 0.1 0.1 0.1 0.2 0.2 0.1 0.1 0.1 0.2 0.2 0.2 0.1 0.1 0.1 0.1 0.2 0.2 0.1 0.1 0.1 0.1 0.2 0.2 0.1 0.1 0.1 0.1 0.2 0.2 0.1 0.1 0.1 0.1 0.2 0.2 0.1 0.1 0.1 0.1 0.2 0.2 0.1 0.1 0.2 0.1 0.2 0.2 0.1 0.1 0.2 0.1 0.2 0.2 0.1 0.1 0.2 0.1 0.2 0.1 0.1 0 0.2 0.1 0.3 0.1 0.1 0 0.2 0.1 0.3 0.1 0.1 0 0.2 0.1 0.3 0.1 0.1 0 0.2 0.1 0.3 0.1 0.1 0 0.2 0.1 0.3 0.1 0.1 0 0.2 0.1 0.3 0.1 0.1 0 0.2 0 0.3 0.1 0.1 0 0.2 0 0.3 0 0.1 0 0.2 0 0.3 0 0.1 0 0.1 0 0.2 0 0 0.2-0.1 0.4-0.3 0.5 -0.3 0.3-0.7 0.3-1 0.2 -0.3-0.1-0.6 0-0.8 0.1 -0.2 0.1-0.4 0.4-0.5 0.6 0 0.2-0.1 0.4-0.2 0.5 -0.1 0.2-0.2 0.3-0.4 0.5 -0.6 0.6-1.5 0.8-2.4 0.5 -0.5-0.2-1.1 0-1.3 0.5 -0.1 0.2-0.3 0.4-0.4 0.6 -0.2 0.2-0.5 0.4-0.8 0.5 0 0 0 0 0 0C12.8 33.9 11.9 33.7 11.3 33.1zM32.6 54.4l-0.1 0.7c0 0.3-0.2 0.5-0.5 0.5h-5c-0.3 0-0.5-0.2-0.5-0.5 -0.7-9.6-5.3-18.7-10.2-21 0.1 0 0.2 0 0.2 0 0.1 0 0.1 0 0.2 0 0.1 0 0.2 0 0.3 0 0.1 0 0.1 0 0.2 0 0.1 0 0.2 0 0.3 0 0.1 0 0.1 0 0.2 0 0.1 0 0.2 0 0.3-0.1 0.1 0 0.1 0 0.2-0.1 0.1 0 0.2-0.1 0.3-0.1 0.1 0 0.1 0 0.2-0.1 0.1 0 0.2-0.1 0.3-0.1 0 0 0.1 0 0.1-0.1 0.1-0.1 0.2-0.1 0.3-0.2 0 0 0 0 0.1 0 0.1-0.1 0.3-0.2 0.4-0.3 0.1-0.1 0.2-0.2 0.3-0.3 2 2.1 5.3 6.4 6.9 12.8 0.1 0.5 0.6 0.8 1 0.8 0.5 0 0.9-0.4 0.9-0.9 0-0.4 0.8-8.7-0.4-14.9 0.1 0 0.1 0 0.2 0 0.2 0 0.3 0 0.5 0.1 0.1 0 0.2 0 0.3 0 0.1 0 0.2 0 0.3 0 0.1 0 0.1 0 0.2 0 0.1 0 0.2 0 0.3 0 0.2 0 0.3 0 0.4 0 0.1 0 0.2 0 0.3 0 0.2 0 0.3-0.1 0.5-0.1 0.1 0 0.1 0 0.2 0 0.3 2.9 0.3 6.8-0.8 10.7 -0.1 0.5 0.1 1.1 0.7 1.2 0.5 0.2 1.1-0.1 1.2-0.6 0-0.1 2.2-5.9 5.4-9.9 0 0 0 0 0 0 0.1 0.2 0.2 0.3 0.4 0.5 0 0 0 0 0 0 0.1 0.1 0.3 0.2 0.4 0.3 0 0 0 0 0 0 0.1 0.1 0.2 0.1 0.2 0.1 0.1 0 0.2 0.1 0.3 0.1 0 0 0.1 0 0.1 0 0.1 0 0.3 0.1 0.4 0.1 0.2 0 0.4 0.1 0.6 0.1 0.1 0.2 0.2 0.4 0.4 0.6C34.6 36 33.1 49.6 32.6 54.4zM55.8 25.5c-0.5 0.5-1.1 0.8-1.8 0.9 -0.3 0-0.5 0.2-0.7 0.5s-0.2 0.5-0.1 0.8c0.3 0.9 0 1.9-0.7 2.6 -0.6 0.6-1.5 0.9-2.4 0.8 -0.5-0.1-0.9 0.2-1.1 0.6 -0.2 0.5-0.5 0.9-0.8 1.2 -1.2 1.2-3.1 1.4-4.5 0.5 0 0 0 0 0 0 -0.2-0.1-0.4-0.3-0.6-0.5 -0.4-0.4-0.7-0.8-0.8-1.3 0-0.1-0.1-0.2-0.2-0.3 0 0 0 0-0.1-0.1 -0.1-0.1-0.1-0.1-0.2-0.1 0 0-0.1 0-0.1-0.1 -0.1 0-0.1-0.1-0.2-0.1 0 0-0.1 0-0.1 0 0 0 0 0-0.1 0 -0.1 0-0.2 0-0.3 0 0 0 0 0 0 0 0 0-0.1 0-0.1 0 -0.3 0-0.5 0-0.7-0.2 0 0-0.1-0.1-0.1-0.1 -0.1-0.1-0.1-0.1-0.2-0.2 0 0 0 0 0-0.1 0-0.1-0.1-0.1-0.1-0.2 0-0.1 0-0.3 0-0.5 0 0 0-0.1 0-0.1 0.3-0.1 0.6-0.2 0.9-0.3 0.1 0 0.2-0.1 0.2-0.1 0.2-0.1 0.4-0.2 0.6-0.3 0.1-0.1 0.2-0.1 0.3-0.2 0.2-0.1 0.3-0.2 0.5-0.4 0.1-0.1 0.2-0.2 0.3-0.3 0.1-0.1 0.3-0.3 0.4-0.4 0.1-0.1 0.1-0.2 0.2-0.3 0.1-0.2 0.2-0.3 0.3-0.5 0.1-0.1 0.1-0.2 0.2-0.3 0.1-0.2 0.1-0.4 0.2-0.6 0-0.1 0.1-0.2 0.1-0.3 0.1-0.3 0.1-0.6 0.1-1 0-0.3 0-0.6-0.1-1 1.5-0.9 2.4-2.6 2.4-4.4 0-0.7-0.1-1.3-0.4-1.9 0.5-0.5 0.9-1.2 1.1-1.9 0.1-0.2 0.1-0.5 0.1-0.7 0-0.2 0-0.5-0.1-0.7 0-0.1 0-0.1-0.1-0.2 0-0.2-0.1-0.3-0.1-0.5 0-0.1-0.1-0.2-0.1-0.2 -0.1-0.1-0.1-0.3-0.2-0.4 -0.1-0.1-0.1-0.2-0.2-0.2 -0.1-0.1-0.1-0.1-0.2-0.2 1.1-0.7 2.5-0.6 3.5 0.3 0.4 0.4 0.7 0.9 0.8 1.5 0 0.3 0.2 0.5 0.4 0.7 0.2 0.2 0.5 0.2 0.8 0.2 1.1-0.2 2.2 0.1 3 0.9 1 1 1.2 2.5 0.6 3.7 -0.2 0.4-0.1 0.9 0.3 1.2 0.1 0.1 0.2 0.2 0.3 0.3 0.6 0.6 1 1.4 1 2.3C56.7 24.1 56.4 24.9 55.8 25.5z"/></svg>