<svg xmlns="http://www.w3.org/2000/svg" viewBox="0 0 51.6 51.6"><style>.a{fill:#EEAF4B;}.b{fill:#F4C44E;}</style><path d="M47.9 33.1c0.4-0.4 0.9-0.7 1.6-0.8 0.2 0 0.4 0 0.7 0 0.2 0 0.4 0.1 0.6 0.1 0.2 0.1 0.4 0.1 0.5 0.2v-2.2c0-1.9-0.9-3.6-2.4-4.8L31.5 9.2c-0.5 0.5-1.3 0.6-2.2 0.3 -1.7-0.5-3-2.3-3-3.9 0-0.4 0.1-0.8 0.3-1.1l-3-2.8C21.4 0 19-0.4 17.3 0.4L2.5 7.5c-1.3 0.6-2.2 1.9-2.2 3.4 0 0 0 0 0 0v15.7c0.5-0.1 1-0.1 1.5 0.1 1.9 0.6 3.5 2.6 3.5 4.5s-1.6 3-3.5 2.4c-0.6-0.2-1.1-0.5-1.5-0.8v2.2c0 1.7 1.1 3.2 2.8 3.6l43.6 12.9c2.3 0.6 4.6-1.2 4.6-3.6v-8.3l0 0c-0.9-0.2-1.8-0.7-2.6-1.4 0 0 0 0 0-0.1 -0.2-0.2-0.3-0.3-0.5-0.5 0-0.1-0.1-0.1-0.1-0.2 -0.1-0.1-0.2-0.3-0.3-0.5 -0.1-0.1-0.1-0.3-0.2-0.4 0-0.1-0.1-0.2-0.1-0.3 -0.1-0.2-0.1-0.5-0.2-0.7 0-0.3-0.1-0.5 0-0.7 0-0.5 0.1-0.9 0.3-1.2C47.7 33.4 47.8 33.2 47.9 33.1z" class="a"/><path d="M50.2 32.3c0.4 0.1 0.8 0.2 1.1 0.3v-2.2c0-1.7-1.2-3.2-2.9-3.6l-19.2-5.7c0 0.1 0 0.2 0 0.3 0 1.7-1.3 2.6-3 2.1 -1.7-0.5-3-2.3-3-3.9 0-0.1 0-0.1 0-0.2L2.2 13.1c-1.2-0.2-1.7-1.1-1.9-2.1L0.3 11v15.8c0.5-0.1 1-0.1 1.5 0.1 1.9 0.6 3.5 2.6 3.5 4.5s-1.6 3-3.5 2.4c-0.6-0.2-1.1-0.5-1.5-0.8v2.2c0 1.7 1.1 3.2 2.8 3.6l43.6 12.9c2.3 0.6 4.6-1.2 4.6-3.6v-8.3c-1.9-0.3-3.6-2.1-4-4.1C47 33.5 48.3 32.1 50.2 32.3z" fill="#FCDF76"/><path d="M26.1 32c0 2.3-1.8 3.5-4.1 2.8 -2.3-0.7-4.1-3.1-4.1-5.3s1.8-3.5 4.1-2.8S26.1 29.8 26.1 32z" class="b"/><path d="M22 26.7c-1.7-0.5-3.1 0-3.7 1.3 0.6 1.6 2.1 3.1 3.7 3.6s3.1 0 3.7-1.3C25.1 28.6 23.7 27.2 22 26.7z" class="a"/><path d="M43 37.5c0 1.6-1.3 2.5-2.9 2 -1.6-0.5-2.9-2.2-2.9-3.7 0-1.6 1.3-2.5 2.9-2C41.7 34.3 43 36 43 37.5z" class="b"/><path d="M15 35.5c0 1.6-1.3 2.5-2.9 2s-2.9-2.2-2.9-3.7c0-1.6 1.3-2.5 2.9-2S15 34 15 35.5z" class="a"/><path d="M35 43.2c0 1-0.8 1.6-1.9 1.3 -1-0.3-1.9-1.4-1.9-2.4s0.8-1.6 1.9-1.3C34.2 41.1 35 42.1 35 43.2z" class="a"/><path d="M34.3 31.3c0 1-0.8 1.6-1.9 1.3 -1-0.3-1.9-1.4-1.9-2.4s0.8-1.6 1.9-1.3C33.5 29.2 34.3 30.3 34.3 31.3z" class="a"/><path d="M9.3 20.8c0 1.1-0.9 1.8-2 1.4 -1.1-0.3-2-1.5-2-2.7s0.9-1.8 2-1.4S9.3 19.6 9.3 20.8z" class="b"/><path d="M29.3 21.4c0 1.7-1.3 2.6-3 2.1 -1.7-0.5-3-2.3-3-3.9 0-1.7 1.3-2.6 3-2.1C27.9 18 29.3 19.8 29.3 21.4z" class="b"/></svg>
