<svg xmlns="http://www.w3.org/2000/svg" viewBox="0 0 53.6 53.6"><path d="M27.7 30.9c-0.1-0.3-0.2-0.5-0.3-0.7 -0.1-0.2-0.2-0.3-0.3-0.5 -0.1-0.1-0.1-0.2-0.2-0.3 -0.1-0.2-0.2-0.3-0.3-0.5 -0.1-0.1-0.1-0.2-0.2-0.2 -0.2-0.3-0.5-0.5-0.7-0.7 -0.1-0.1-0.2-0.2-0.3-0.2 -0.1-0.1-0.2-0.2-0.4-0.3 -0.1-0.1-0.3-0.2-0.5-0.3 -0.1-0.1-0.2-0.1-0.3-0.2 -0.3-0.1-0.6-0.3-0.8-0.3 -0.2-0.1-0.5-0.1-0.7-0.2 0 0-0.1 0-0.1 0 -0.5-0.1-0.9-0.1-1.4 0 0 0 0 0 0 0 -0.6 0.1-1.1 0.3-1.6 0.7 0 0-0.1 0.1-0.1 0.1 -0.1 0.1-0.2 0.2-0.3 0.3 -0.1 0.1-0.2 0.2-0.2 0.2 -0.1 0.2-0.3 0.4-0.4 0.6 0 0 0 0 0 0 -0.3 0.6-0.4 1.2-0.4 2 0 2.7 2.1 5.5 4.8 6.3 0.5 0.2 1 0.2 1.5 0.2 0.9 0 1.7-0.2 2.3-0.7 1-0.7 1.5-1.9 1.5-3.3 0-0.7-0.1-1.4-0.4-2.1C27.7 30.9 27.7 30.9 27.7 30.9zM20.5 29c0.1-0.1 0.2-0.2 0.3-0.3 0.1 0 0.1-0.1 0.2-0.1 0.1 0 0.2-0.1 0.3-0.1 0.1 0 0.2 0 0.3 0 0.1 0 0.3 0 0.4 0 0 0 0.1 0 0.1 0 0.2 0 0.4 0.1 0.6 0.1 0.2 0.1 0.4 0.2 0.6 0.3 0 0 0.1 0 0.1 0.1 0.4 0.2 0.8 0.5 1.1 0.8 0 0 0 0 0.1 0.1 0.3 0.3 0.6 0.7 0.8 1.1 0 0.1 0.1 0.1 0.1 0.2 0 0 0 0.1 0.1 0.1 -0.5 0.6-1.3 0.7-2.3 0.4 -1.2-0.4-2.3-1.3-2.9-2.6C20.5 29 20.5 29 20.5 29zM25.4 34.7c-0.5 0.4-1.2 0.4-2.1 0.2 -1.3-0.4-2.4-1.5-3-2.7 0.7 0.6 1.5 1.1 2.4 1.4 0.5 0.2 1 0.2 1.5 0.2 0.7 0 1.3-0.2 1.9-0.4C26 33.9 25.8 34.4 25.4 34.7z"/><path d="M41.5 33.8c-1.1-0.3-2.2-0.2-3 0.4 -0.8 0.6-1.2 1.5-1.2 2.5 0 2 1.6 4.1 3.6 4.7 0.4 0.1 0.8 0.2 1.1 0.2 0.7 0 1.3-0.2 1.8-0.6 0.8-0.6 1.2-1.5 1.2-2.5C45 36.5 43.5 34.5 41.5 33.8zM42.6 39.5c-0.3 0.2-0.7 0.2-1.2 0.1 -1.2-0.4-2.2-1.6-2.2-2.8 0-0.3 0.1-0.7 0.4-0.9 0.2-0.1 0.4-0.2 0.6-0.2 0.2 0 0.4 0 0.6 0.1 1.2 0.4 2.2 1.6 2.2 2.8C43 38.8 43 39.2 42.6 39.5z"/><path d="M13.5 31.8c-1.1-0.3-2.2-0.2-3 0.4 -0.8 0.6-1.2 1.5-1.2 2.5 0 2 1.6 4.1 3.6 4.7 0.4 0.1 0.8 0.2 1.1 0.2 0.7 0 1.3-0.2 1.8-0.6 0.8-0.6 1.2-1.5 1.2-2.5C17 34.5 15.5 32.5 13.5 31.8zM14.6 37.5c-0.3 0.2-0.7 0.2-1.2 0.1 -1.2-0.4-2.2-1.6-2.2-2.8 0-0.3 0.1-0.7 0.4-0.9 0.2-0.1 0.4-0.2 0.6-0.2 0.2 0 0.4 0 0.6 0.1 1.2 0.4 2.2 1.6 2.2 2.8C15 36.8 15 37.2 14.6 37.5z"/><path d="M34.5 40.8c-0.8-0.2-1.6-0.1-2.2 0.3 -0.6 0.4-0.9 1.1-0.9 1.9 0 1.5 1.1 2.9 2.6 3.4 0.3 0.1 0.6 0.1 0.8 0.1 0.5 0 1-0.1 1.4-0.4 0.6-0.4 0.9-1.1 0.9-1.9C37 42.7 35.9 41.2 34.5 40.8zM34.9 44.5c-0.1 0.1-0.3 0.1-0.5 0 -0.6-0.2-1.2-0.9-1.2-1.5 0-0.1 0-0.2 0.1-0.3 0 0 0.1-0.1 0.2-0.1 0.1 0 0.2 0 0.3 0 0.6 0.2 1.2 0.9 1.2 1.5C35 44.2 35 44.4 34.9 44.5z"/><path d="M33.2 34.5c0.3 0.1 0.6 0.1 0.8 0.1 0.5 0 1-0.1 1.4-0.4 0.6-0.4 0.9-1.1 0.9-1.9 0-1.5-1.1-2.9-2.6-3.4 -0.8-0.3-1.6-0.1-2.2 0.3 -0.6 0.4-0.9 1.1-0.9 1.9C30.6 32.6 31.7 34.1 33.2 34.5zM32.7 30.8c0 0 0.1-0.1 0.2-0.1 0.1 0 0.2 0 0.3 0 0.6 0.2 1.2 0.9 1.2 1.5 0 0.1 0 0.2-0.1 0.3 -0.1 0.1-0.3 0.1-0.5 0 -0.6-0.2-1.2-0.9-1.2-1.5C32.6 31 32.6 30.9 32.7 30.8z"/><path d="M11.3 21.8c0-1.6-1.2-3.1-2.7-3.6 -0.9-0.3-1.7-0.1-2.4 0.3 -0.6 0.5-1 1.2-1 2 0 1.6 1.2 3.2 2.7 3.6 0.3 0.1 0.6 0.1 0.9 0.1 0.5 0 1.1-0.2 1.5-0.5C11 23.4 11.3 22.6 11.3 21.8zM9.1 22.2C9 22.3 8.8 22.3 8.6 22.2c-0.7-0.2-1.3-1-1.3-1.7 0-0.1 0-0.3 0.2-0.4 0.1 0 0.2-0.1 0.3-0.1 0.1 0 0.2 0 0.3 0.1 0.7 0.2 1.3 1 1.3 1.7C9.3 21.9 9.3 22.1 9.1 22.2z"/><path d="M49.3 35.4c0-0.1 0-0.1 0.1-0.2 0-0.1 0-0.1 0.1-0.2 0 0 0 0 0 0 0.1-0.1 0.1-0.2 0.2-0.3 0.1-0.1 0.2-0.2 0.4-0.3 0 0 0.1 0 0.1 0 0.1-0.1 0.3-0.1 0.4-0.1 0 0 0 0 0.1 0 0.1 0 0.3 0 0.4 0 0 0 0 0 0 0h0c0 0 0 0 0 0 0.1 0 0.2 0.1 0.4 0.1 0.1 0 0.2 0.1 0.3 0.1 0.1 0 0.1 0 0.2 0.1 0.1 0 0.1 0 0.2 0.1 0 0 0 0 0.1 0 0.1 0 0.1 0 0.2 0 0 0 0 0 0 0 0.1 0 0.2 0 0.2 0 0 0 0 0 0 0 0 0 0.1 0 0.1-0.1 0 0 0.1 0 0.1 0 0.2-0.1 0.3-0.3 0.4-0.6 0-0.1 0-0.2 0-0.3v-2.2c0-2.2-1-4.2-2.7-5.5L33.2 9.4c-0.4-0.3-0.9-0.4-1.3 0 -0.3 0.3-0.8 0.3-1.3 0.1 -1.2-0.4-2.3-1.7-2.3-3 0-0.3 0-0.5 0.1-0.7 0.2-0.4 0.1-0.9-0.2-1.2l-3-2.8c0 0-0.1 0-0.1-0.1C22.9 0.1 20-0.5 17.9 0.4L3.1 7.6c-1.7 0.7-2.8 2.4-2.8 4.4l0 0v0 15.7c0 0.3 0.1 0.6 0.4 0.8 0.2 0.2 0.5 0.3 0.8 0.2 0.3-0.1 0.7 0 1.1 0.1 1.5 0.5 2.8 2.1 2.8 3.6 0 0.6-0.2 1-0.6 1.3 -0.4 0.3-1 0.3-1.6 0.1 -0.4-0.1-0.8-0.3-1.2-0.7 -0.3-0.2-0.7-0.3-1.1-0.1 -0.3 0.2-0.6 0.5-0.6 0.9v2.2c0 2.2 1.5 4 3.5 4.5l43.7 12.9c0.4 0.1 0.8 0.1 1.1 0.1 1 0 2-0.3 2.9-1 1.1-0.9 1.8-2.2 1.8-3.7v-8.3c0-0.2-0.1-0.5-0.2-0.6 -0.1-0.2-0.4-0.3-0.6-0.3 0 0 0 0-0.1 0 -0.9-0.2-1.8-0.8-2.4-1.6l0 0c-0.3-0.4-0.5-0.8-0.6-1.3 0-0.1-0.1-0.3-0.1-0.4 0-0.2 0-0.4 0-0.5 0-0.1 0-0.2 0-0.2C49.3 35.5 49.3 35.4 49.3 35.4zM3.9 9.4l14.8-7.1c1.4-0.6 3.5-0.2 5.2 1.1l2.5 2.3c-0.1 0.3-0.1 0.5-0.1 0.8 0 2.1 1.6 4.2 3.7 4.9 0.8 0.3 1.7 0.2 2.4 0l15.9 15.1L31.1 21.3c-0.4-1.7-1.8-3.3-3.5-3.8 -1.1-0.3-2.2-0.2-3.1 0.4 -0.4 0.3-0.7 0.7-0.9 1.1L3.4 13.1c-0.6-0.1-1-0.5-1.1-1.3 0 0 0-0.1 0-0.1C2.4 10.7 3 9.8 3.9 9.4zM29.3 22.4c0 0.3-0.1 0.8-0.4 1 -0.3 0.2-0.8 0.3-1.3 0.1 -0.2 0-0.3-0.1-0.5-0.2 -0.9-0.5-1.6-1.4-1.8-2.3 0-0.2 0-0.3 0-0.5 0 0 0-0.1 0-0.2 0 0 0 0 0-0.1 0-0.3 0.1-0.6 0.4-0.8 0.2-0.1 0.4-0.2 0.7-0.2 0.2 0 0.4 0 0.6 0.1 1.2 0.4 2.1 1.6 2.3 2.7 0 0 0 0 0 0L29.3 22.4zM51.3 48.9c0 0.8-0.4 1.6-1 2.1 -0.7 0.5-1.5 0.7-2.3 0.5L4.3 38.7c-1.2-0.3-2-1.4-2-2.6v-0.4c0.1 0 0.2 0.1 0.2 0.1 1.3 0.4 2.5 0.2 3.4-0.4 0.9-0.6 1.4-1.7 1.4-2.9 0-2.4-1.8-4.8-4.2-5.5 -0.3-0.1-0.5-0.1-0.8-0.2V14.8c0.2 0.1 0.4 0.2 0.7 0.2L23.3 21.1c0 0 0 0.1 0 0.1 0 0.1 0 0.2 0.1 0.3 0 0.1 0.1 0.3 0.1 0.4 0 0.1 0.1 0.2 0.1 0.3 0.1 0.1 0.1 0.3 0.2 0.4 0.1 0.1 0.1 0.2 0.2 0.3 0.1 0.1 0.2 0.2 0.2 0.4 0.1 0.1 0.1 0.2 0.2 0.3 0.1 0.1 0.2 0.2 0.3 0.3 0.1 0.1 0.2 0.2 0.2 0.3 0.1 0.1 0.2 0.2 0.4 0.3 0.1 0.1 0.2 0.1 0.3 0.2 0.1 0.1 0.3 0.2 0.4 0.3 0.1 0 0.2 0.1 0.2 0.1 0.2 0.1 0.5 0.2 0.7 0.3 0.3 0.1 0.5 0.1 0.7 0.2 0.1 0 0.1 0 0.2 0 0.1 0 0.2 0 0.2 0 0.1 0 0.3 0 0.4 0 0 0 0.1 0 0.1 0 0.2 0 0.4-0.1 0.7-0.2 0 0 0.1 0 0.1-0.1 0.2-0.1 0.4-0.2 0.6-0.3 0.2-0.1 0.3-0.3 0.5-0.4 0 0 0.1-0.1 0.1-0.1 0.1-0.2 0.2-0.3 0.3-0.5 0 0 0 0 0 0 0.1-0.2 0.1-0.3 0.2-0.5l18.1 5.4c1.2 0.3 2.1 1.4 2.1 2.6v0.9c-0.3 0-0.6 0-0.9 0 -0.2 0-0.5 0.1-0.7 0.1 -0.1 0-0.2 0.1-0.2 0.1 -0.2 0.1-0.3 0.1-0.5 0.2 -0.1 0-0.1 0.1-0.2 0.1 -0.2 0.1-0.3 0.2-0.4 0.3 0 0-0.1 0.1-0.1 0.1 0 0 0 0 0 0 0 0 0 0-0.1 0.1 0 0 0 0 0 0 -0.1 0.1-0.2 0.2-0.2 0.4 -0.1 0.1-0.1 0.2-0.2 0.3 0 0 0 0 0 0 -0.1 0.2-0.1 0.3-0.2 0.5 0 0.1-0.1 0.2-0.1 0.3 -0.1 0.2-0.1 0.5-0.1 0.7 0 0.1 0 0.1 0 0.2 0 0 0 0 0 0 0 0.3 0 0.5 0.1 0.8 0 0 0 0.1 0 0.1 0 0.3 0.1 0.6 0.2 0.8 0 0 0 0 0 0.1 0 0.1 0.1 0.2 0.2 0.4 0.1 0.1 0.1 0.2 0.2 0.4 0 0 0 0.1 0.1 0.1 0.1 0.1 0.1 0.2 0.2 0.3 0.1 0.1 0.1 0.2 0.2 0.3l0 0c0 0.1 0.1 0.1 0.1 0.2 0.2 0.2 0.3 0.4 0.5 0.6 0 0 0.1 0.1 0.1 0.1 0.1 0.1 0.1 0.1 0.2 0.2 0 0 0.1 0.1 0.1 0.1 0.2 0.2 0.3 0.3 0.5 0.4 0 0 0.1 0 0.1 0.1 0.2 0.1 0.4 0.2 0.6 0.4 0 0 0.1 0 0.1 0.1 0.2 0.1 0.5 0.2 0.7 0.3V48.9z"/></svg>
 