<svg xmlns="http://www.w3.org/2000/svg" viewBox="0 0 56.3 56.3"><path d="M13 11.2c1.1 0 2.2-0.4 3-1.2 0.4-0.4 0.4-1 0-1.4 -0.4-0.4-1-0.4-1.4 0 -0.9 0.9-2.3 0.9-3.2 0 -0.4-0.4-1-0.4-1.4 0 -0.4 0.4-0.4 1 0 1.4C10.8 10.8 11.9 11.2 13 11.2z"/><path d="M17.9 41.8c-0.2-0.5-0.8-0.7-1.3-0.5 -0.5 0.2-0.7 0.8-0.5 1.3l2.8 5.9c0.2 0.4 0.5 0.6 0.9 0.6 0.1 0 0.3 0 0.4-0.1 0.5-0.2 0.7-0.8 0.5-1.3L17.9 41.8z"/><path d="M43.2 41.3c-0.5-0.2-1.1 0-1.3 0.5l-2.8 5.9c-0.2 0.5 0 1.1 0.5 1.3 0.1 0.1 0.3 0.1 0.4 0.1 0.4 0 0.7-0.2 0.9-0.6l2.8-5.9C43.9 42.1 43.7 41.5 43.2 41.3z"/><path d="M34.7 43.3c-0.5-0.1-1.1 0.3-1.1 0.8l-0.9 5.9c-0.1 0.5 0.3 1.1 0.8 1.1 0.1 0 0.1 0 0.2 0 0.5 0 0.9-0.4 1-0.8l0.9-5.9C35.6 43.9 35.2 43.4 34.7 43.3z"/><path d="M25.1 43.3c-0.5 0.1-0.9 0.6-0.8 1.1l0.9 5.9c0.1 0.5 0.5 0.8 1 0.8 0.1 0 0.1 0 0.2 0 0.5-0.1 0.9-0.6 0.8-1.1l-0.9-5.9C26.2 43.6 25.7 43.2 25.1 43.3z"/><path d="M29.9 20.1c4.3 0 8.4-0.6 11.9-1.6 0.5-0.2 0.8-0.7 0.7-1.2 -0.2-0.5-0.7-0.8-1.2-0.7 -3.3 1-7.2 1.5-11.3 1.5 -0.6 0-1 0.4-1 1S29.3 20.1 29.9 20.1z"/><path d="M11.5 27.6c1 0.5 2.1 1 3.2 1.4 0.1 0 0.2 0.1 0.3 0.1 0.4 0 0.8-0.3 0.9-0.7 0.2-0.5-0.1-1.1-0.6-1.3 -1-0.4-2-0.8-2.9-1.3 -0.5-0.3-1.1-0.1-1.3 0.4C10.9 26.8 11 27.4 11.5 27.6z"/><path d="M23.6 31.1c2 0.2 4 0.4 6.1 0.4 2.2 0 4.4-0.1 6.6-0.4 0.5-0.1 0.9-0.6 0.9-1.1s-0.6-0.9-1.1-0.9c-4.1 0.5-8.2 0.6-12.2 0.1 -0.5-0.1-1 0.3-1.1 0.9C22.6 30.5 23 31 23.6 31.1z"/><path d="M40.8 29.2c0.1 0.4 0.5 0.7 1 0.7 0.1 0 0.2 0 0.3 0 2.2-0.6 4.2-1.4 5.9-2.3 0.5-0.3 0.7-0.9 0.4-1.4 -0.3-0.5-0.9-0.7-1.4-0.4 -1.6 0.8-3.4 1.5-5.5 2.1C40.9 28.1 40.6 28.7 40.8 29.2z"/><path d="M54.6 31.3c0-2.3-1.2-4.5-3.6-6.5 0.1-0.4 0.1-0.8 0.1-1.1 0-2.9-2-5.7-5.8-7.8 -0.1-2-0.7-8.6-4.9-12.4C38 1.4 34.9 0.5 31.2 0.9c-0.3 0-0.6 0.2-0.8 0.6 -0.2 0.3-0.1 0.7 0 1 0.6 1 1.7 3.5 1.1 4.6 -0.3 0.5-0.9 0.7-2 0.7 -2.6 0-5.1 0.3-7.4 0.9 -0.3-0.4-0.6-0.8-1-1.2 -2.4-2.4-5.6-3.5-8.4-3.2 -0.4-0.8-1.1-1.7-2-2.5 -2-1.6-4.8-2.1-8.2-1.6 -0.5 0.1-0.9 0.6-0.8 1.1 0.1 0.5 0.6 0.9 1.1 0.8 2.9-0.4 5.1 0 6.7 1.2 0.5 0.4 0.9 0.9 1.2 1.4C9.7 5.1 8.8 5.7 8 6.5L7 7.4c-3.4 3.4-3 9.4 0.9 13.3 0.2 0.2 0.5 0.5 0.7 0.7 -0.3 0.8-0.5 1.6-0.5 2.3 0 0.4 0 0.8 0.1 1.1 -2.4 1.9-3.6 4.1-3.6 6.5 0 1.7 0.7 3.3 1.9 4.8l3.8 9.3 0 0.1c3.2 5.9 5.9 7.3 11.7 9.6 2 0.8 4.9 1.2 7.7 1.2 2.9 0 5.7-0.4 7.7-1.2 5.8-2.3 8.5-3.7 11.6-9.5L54.1 33.7l0 0C54.4 32.9 54.6 32.1 54.6 31.3zM8.5 8.8l0.9-0.9c0.6-0.6 1.4-1.1 2.2-1.4 0.1 0.4 0.1 0.7 0.1 0.7 0 0.5 0.5 0.9 1 0.9 0 0 0.1 0 0.1 0 0.6 0 1-0.5 0.9-1.1 0 0 0-0.4-0.2-0.9 0.1 0 0.1 0 0.2 0 2.1 0 4.3 0.9 6.1 2.7 0.4 0.4 0.8 0.9 1.1 1.4 0 0 0 0 0 0 0.6 1.1 1 2.2 1 3.4 0 0 0 0.1 0 0.1 0 0.4 0 0.7 0 1.1 0 0 0 0.1 0 0.1 -0.1 0.7-0.3 1.5-0.6 2.2 0 0 0 0.1-0.1 0.1 -0.2 0.3-0.3 0.6-0.6 1 0 0-0.1 0.1-0.1 0.1 -0.2 0.3-0.5 0.6-0.7 0.9 -0.3 0.3-0.6 0.6-0.9 0.8 0 0-0.1 0-0.1 0.1 -0.3 0.2-0.7 0.4-1 0.6 0 0 0 0-0.1 0 -1.1 0.5-2.4 0.7-3.6 0.7 0 0-0.1 0-0.1 0 -0.4 0-0.8-0.1-1.2-0.2 0 0-0.1 0-0.1 0 -0.4-0.1-0.8-0.2-1.1-0.4 0 0 0 0 0 0 -0.4-0.2-0.8-0.4-1.1-0.6 0 0 0 0 0 0 -0.4-0.3-0.8-0.6-1.1-0.9C6.2 16.2 5.8 11.5 8.5 8.8zM10.1 26.1c0.3-0.2 0.5-0.7 0.4-1.1 -0.1-0.4-0.2-0.8-0.2-1.2 0-0.4 0.1-0.8 0.2-1.2 0.1 0 0.1 0.1 0.2 0.1 0.5 0.2 1.1 0.4 1.7 0.6 0.1 0 0.2 0 0.3 0.1 0.2 0 0.3 0.1 0.5 0.1 0.1 0 0.2 0 0.3 0 0.2 0 0.3 0 0.5 0.1 0.1 0 0.2 0 0.3 0 0.1 0 0.3 0 0.4 0 0.5 0 1 0 1.4-0.1 0 0 0.1 0 0.1 0 0.2 0 0.4-0.1 0.6-0.1 0 0 0 0 0.1 0 0.7-0.2 1.3-0.4 2-0.7 0 0 0 0 0 0 0.2-0.1 0.3-0.2 0.5-0.3 0.1-0.1 0.2-0.1 0.3-0.2 0.1-0.1 0.3-0.2 0.4-0.3 0.1-0.1 0.2-0.2 0.4-0.3 0.1-0.1 0.2-0.1 0.3-0.2 0.2-0.2 0.4-0.4 0.6-0.6 0.3-0.3 0.6-0.6 0.8-1 0.1-0.1 0.1-0.1 0.2-0.2 0.5-0.7 0.9-1.5 1.2-2.2 0-0.1 0-0.1 0.1-0.2 0.3-0.8 0.4-1.6 0.5-2.5 0-0.1 0-0.2 0-0.3 0-0.1 0-0.2 0-0.3 0-0.8-0.1-1.5-0.3-2.3 0 0 0-0.1 0-0.1 -0.1-0.4-0.2-0.9-0.4-1.3 2-0.4 4.2-0.7 6.4-0.7 1.8 0 3.1-0.6 3.7-1.8 0.9-1.6 0.2-3.8-0.4-5.2 2.4 0 4.5 0.8 6.1 2.2 4.2 3.9 4.3 11.5 4.3 11.5 0 0.4 0.2 0.7 0.5 0.9 3.4 1.8 5.2 4 5.2 6.3 0 0.4-0.1 0.8-0.2 1.2 -0.1 0.4 0 0.8 0.4 1.1 1.5 1.1 3.3 3 3.3 5.3 0 0.4 0 0.7-0.1 1.1 0 0 0 0-0.1 0 -0.3-0.1-0.5-0.2-0.8-0.3 0 0-0.1 0-0.1 0 -0.3-0.1-0.6-0.1-0.8-0.1 0 0 0 0-0.1 0 -0.3 0-0.6 0-0.9 0.1 -0.1 0-0.1 0-0.2 0 -0.3 0.1-0.6 0.1-0.9 0.2 -0.1 0-0.1 0-0.2 0.1 -0.3 0.1-0.6 0.2-1 0.4 0 0 0 0-0.1 0 -0.3 0.2-0.7 0.4-1 0.6 -0.1 0-0.1 0.1-0.2 0.1 -0.3 0.2-0.7 0.5-1 0.7 -0.1 0.1-0.1 0.1-0.2 0.2 -0.4 0.3-0.7 0.6-1.1 1 -2.7-1.8-6.4-0.6-9.1 1.8 -2.7-2.1-6.5-2.1-9.1 0 -0.2-0.2-0.4-0.3-0.6-0.5 -0.1 0-0.1-0.1-0.2-0.1 -0.2-0.1-0.3-0.2-0.5-0.3 -0.1 0-0.1-0.1-0.2-0.1 -0.2-0.1-0.5-0.3-0.7-0.4 0 0 0 0 0 0 -0.2-0.1-0.5-0.2-0.7-0.3 -0.1 0-0.1-0.1-0.2-0.1 -0.2-0.1-0.4-0.1-0.5-0.2 -0.1 0-0.1 0-0.2-0.1 -0.2-0.1-0.5-0.2-0.7-0.2 0 0 0 0 0 0 -0.2-0.1-0.5-0.1-0.7-0.1 -0.1 0-0.1 0-0.2 0 -0.2 0-0.4 0-0.5 0 0 0-0.1 0-0.1 0 0 0 0 0-0.1 0 -0.5 0-0.9 0.1-1.4 0.2 -0.1 0-0.1 0-0.2 0.1 -0.2 0.1-0.3 0.1-0.5 0.2 -0.1 0-0.1 0.1-0.2 0.1 -0.2 0.1-0.4 0.2-0.6 0.4 -0.2-0.2-0.5-0.4-0.7-0.6 -0.1-0.1-0.1-0.1-0.2-0.2 -0.2-0.1-0.3-0.3-0.5-0.4 -0.1-0.1-0.2-0.1-0.3-0.2 -0.1-0.1-0.3-0.2-0.4-0.3 -0.1-0.1-0.2-0.1-0.3-0.2 -0.1-0.1-0.3-0.2-0.4-0.3 -0.1-0.1-0.2-0.1-0.3-0.2 -0.1-0.1-0.3-0.1-0.4-0.2 -0.1 0-0.2-0.1-0.3-0.1 -0.1-0.1-0.3-0.1-0.4-0.2 -0.1 0-0.2-0.1-0.3-0.1 -0.1-0.1-0.3-0.1-0.4-0.2 -0.1 0-0.2-0.1-0.2-0.1 -0.2 0-0.3-0.1-0.5-0.1 -0.1 0-0.1 0-0.2 0 -0.2 0-0.4-0.1-0.6-0.1 0 0-0.1 0-0.1 0 -0.2 0-0.3 0-0.5 0C9.3 32 9.2 32 9.1 32c-0.1 0-0.2 0-0.4 0 -0.1 0-0.1 0-0.2 0 -0.1 0-0.2 0-0.3 0.1 -0.1 0-0.1 0-0.2 0.1 -0.1 0-0.2 0.1-0.3 0.1C7.6 32.3 7.6 32.3 7.5 32.4c-0.1 0-0.2 0.1-0.3 0.1 -0.1 0-0.1 0.1-0.2 0.1 0 0-0.1 0-0.1 0.1 -0.1-0.4-0.2-0.9-0.2-1.3C6.7 29 8.5 27.2 10.1 26.1zM47.5 44.7c-2.8 5.2-5 6.4-10.6 8.5 -3.5 1.4-10.5 1.4-14 0 -5.5-2.1-7.7-3.3-10.6-8.6l-3.8-9.4c0 0 0 0 0 0l-0.4-0.9c2.5-1.4 6.5 2.4 7.3 3.2l0.7 0.7 0.7-0.7c2.2-2.2 5.9-0.1 7.9 1.8l0.7 0.7 0.7-0.7c2.1-2.1 5.6-2.1 7.8 0l0.7 0.7 0.7-0.7c1.8-1.8 5-3.7 7.2-2.2 0.2 0.1 0.4 0.2 0.5 0.4l0.7 0.7 0.7-0.7c0 0 0 0 0 0 0.1-0.1 0.3-0.3 0.5-0.5 0 0 0 0 0.1-0.1 0.1-0.1 0.2-0.2 0.3-0.2 0 0 0.1-0.1 0.1-0.1 0.1-0.1 0.2-0.1 0.2-0.2 0.1-0.1 0.1-0.1 0.2-0.2 0.1-0.1 0.2-0.1 0.2-0.2 0.1-0.1 0.2-0.1 0.2-0.2 0.1-0.1 0.2-0.1 0.2-0.2 0.1-0.1 0.2-0.1 0.3-0.2 0.1-0.1 0.2-0.1 0.2-0.2 0.1-0.1 0.2-0.1 0.3-0.2 0.1-0.1 0.2-0.1 0.3-0.2 0.1-0.1 0.2-0.1 0.3-0.2 0.1 0 0.2-0.1 0.3-0.1 0.1-0.1 0.2-0.1 0.3-0.2 0.1 0 0.2-0.1 0.3-0.1 0.1 0 0.2-0.1 0.3-0.1 0.1 0 0.2-0.1 0.3-0.1 0.1 0 0.2-0.1 0.3-0.1 0.1 0 0.2 0 0.3-0.1 0.1 0 0.2 0 0.3 0 0.1 0 0.2 0 0.4 0 0.1 0 0.1 0 0.2 0 0.4 0 0.7 0.1 1 0.3L47.5 44.7z"/></svg>
 