<svg xmlns="http://www.w3.org/2000/svg" viewBox="0 0 55.3 55.3"><style>.a{fill:#C18B5F;}.b{fill:#F9DA49;}</style><path d="M8.7 20C5.1 16.5 4.7 11.2 7.7 8.1l0.9-0.9c3-3 8.3-2.6 11.9 0.9 3.3 3.3 3.3 8.6 0 11.9S11.9 23.3 8.7 20z" fill="#F75B57"/><path d="M13 11.2c-1.1 0-2.2-0.4-3-1.2 -0.4-0.4-0.4-1 0-1.4 0.4-0.4 1-0.4 1.4 0 0.9 0.9 2.3 0.9 3.2 0 0.4-0.4 1-0.4 1.4 0 0.4 0.4 0.4 1 0 1.4C15.2 10.8 14.1 11.2 13 11.2z" fill="#F98282"/><path d="M6.9 34l4.5 11.1c3 5.5 5.4 6.9 11.2 9.1 3.8 1.5 11 1.5 14.7 0 5.7-2.2 8.2-3.6 11.1-9l4.6-11.2c-2.5-2.5-6.7 0.3-9.2 2.8 -2.5-2.5-6.6-0.7-9.2 1.8 -2.5-2.5-6.6-2.5-9.2 0 -2.6-2.5-6.7-4.3-9.3-1.8C13.6 34.3 9.4 31.5 6.9 34z" fill="#A46F3E"/><path d="M19.7 49.1c-0.4 0-0.7-0.2-0.9-0.6l-2.8-5.9c-0.2-0.5 0-1.1 0.5-1.3 0.5-0.2 1.1 0 1.3 0.5l2.8 5.9c0.2 0.5 0 1.1-0.5 1.3C20 49.1 19.9 49.1 19.7 49.1z" class="a"/><path d="M40 49.1c-0.1 0-0.3 0-0.4-0.1 -0.5-0.2-0.7-0.8-0.5-1.3l2.8-5.9c0.2-0.5 0.8-0.7 1.3-0.5 0.5 0.2 0.7 0.8 0.5 1.3l-2.8 5.9C40.8 48.9 40.4 49.1 40 49.1z" class="a"/><path d="M33.6 51.2c-0.1 0-0.1 0-0.2 0 -0.5-0.1-0.9-0.6-0.8-1.1l0.9-5.9c0.1-0.5 0.6-0.9 1.1-0.8 0.5 0.1 0.9 0.6 0.8 1.1l-0.9 5.9C34.5 50.8 34.1 51.2 33.6 51.2z" class="a"/><path d="M26.2 51.2c-0.5 0-0.9-0.4-1-0.8l-0.9-5.9c-0.1-0.5 0.3-1.1 0.8-1.1 0.5-0.1 1.1 0.3 1.1 0.8l0.9 5.9c0.1 0.5-0.3 1.1-0.8 1.1C26.3 51.2 26.2 51.2 26.2 51.2z" class="a"/><path d="M49.8 25.3c0.1-0.5 0.2-1 0.2-1.5 0-2.8-2.2-5.3-5.8-7.2 0 0 0.1-16-13-14.7 0 0 4.2 6.8-1.7 6.9 -2.9 0-5.6 0.4-7.8 1 1.9 3.2 1.5 7.5-1.3 10.2 -2.9 2.9-7.3 3.2-10.6 1.1 -0.5 0.9-0.7 1.7-0.7 2.7 0 0.5 0.1 1 0.2 1.5 -2.4 1.8-3.7 3.8-3.7 6.1 0 1.5 0.6 3 1.8 4.3L6.9 34c2.6-2.5 6.7 0.3 9.3 2.8 2.6-2.5 6.7-0.7 9.3 1.8 2.5-2.5 6.6-2.5 9.2 0 2.5-2.5 6.6-4.3 9.2-1.8 2.5-2.5 6.6-5.3 9.2-2.8 0.4-0.8 0.7-1.7 0.7-2.6C53.6 29.1 52.2 27 49.8 25.3z" fill="#FFF5BB"/><path d="M12.7 8.2c-0.5 0-0.9-0.4-1-0.9 0-0.1-0.3-2.4-2.2-3.9C8 2.1 5.7 1.7 2.9 2.2c-0.5 0.1-1.1-0.3-1.1-0.8 -0.1-0.5 0.3-1.1 0.8-1.1 3.4-0.5 6.2 0 8.2 1.6 2.6 2.1 2.9 5.2 2.9 5.3 0 0.6-0.4 1-0.9 1.1C12.8 8.2 12.7 8.2 12.7 8.2z" fill="#6A3311"/><path d="M29.9 20.1c-0.6 0-1-0.4-1-1s0.4-1 1-1c4.1 0 8.1-0.5 11.3-1.5 0.5-0.2 1.1 0.1 1.2 0.7 0.2 0.5-0.1 1.1-0.7 1.2C38.3 19.6 34.2 20.1 29.9 20.1z" class="b"/><path d="M15.1 29.1c-0.1 0-0.2 0-0.3-0.1 -1.1-0.4-2.2-0.9-3.2-1.4 -0.5-0.3-0.7-0.9-0.4-1.3 0.3-0.5 0.9-0.7 1.4-0.4 0.9 0.5 1.9 0.9 2.9 1.3 0.5 0.2 0.8 0.8 0.6 1.3C15.8 28.9 15.5 29.1 15.1 29.1z" class="b"/><path d="M29.6 31.5c-2 0-4.1-0.1-6.1-0.4 -0.5-0.1-0.9-0.6-0.9-1.1 0.1-0.5 0.6-0.9 1.1-0.9 4 0.5 8.1 0.5 12.2-0.1 0.6-0.1 1 0.3 1.1 0.9s-0.3 1.1-0.9 1.1C34.1 31.3 31.8 31.5 29.6 31.5z" class="b"/><path d="M41.7 29.9c-0.4 0-0.8-0.3-1-0.7 -0.1-0.5 0.2-1.1 0.7-1.2 2.1-0.6 3.9-1.3 5.5-2.1 0.5-0.3 1.1-0.1 1.4 0.4 0.3 0.5 0.1 1.1-0.4 1.4 -1.7 0.9-3.7 1.7-5.9 2.3C41.9 29.9 41.8 29.9 41.7 29.9z" class="b"/></svg>