<?xml version="1.0" encoding="iso-8859-1"?>
<!-- Generator: Adobe Illustrator 21.0.0, SVG Export Plug-In . SVG Version: 6.00 Build 0)  -->
<svg xmlns="http://www.w3.org/2000/svg" xmlns:xlink="http://www.w3.org/1999/xlink" version="1.1" id="Capa_1" x="0px" y="0px" viewBox="0 0 511.31 511.31" style="enable-background:new 0 0 511.31 511.31;" xml:space="preserve" width="512" height="512">
<path d="M503.226,90.355H367.715V34.081C367.715,15.289,352.426,0,333.634,0h-66.046c-4.143,0-7.5,3.357-7.5,7.5v31.922  c0,4.143,3.357,7.5,7.5,7.5h53.205v43.434H185.282c-4.142,0-7.5,3.357-7.5,7.5v40.975c0,4.143,3.358,7.5,7.5,7.5h17.636  l7.467,63.281c-38.721-8.945-78.958-4.918-116.307,12.111c-51.784,23.609-84.076,64.704-93.386,118.842  c-0.072,0.42-0.108,0.846-0.108,1.272c0,9.805,4.992,18.354,12.334,22.75c-1.49,2.961-2.336,6.312-2.336,9.862  c0,6.189,2.56,11.777,6.654,15.736c-4.149,4.697-6.675,10.86-6.675,17.606v17.195c0,4.575,1.16,8.884,3.201,12.649  c-7.648,2.576-13.178,9.801-13.178,18.307v18.511c0,20.323,16.534,36.857,36.857,36.857h265.168h106.578  c19.005,0,35.016-14.232,37.242-33.105L485.59,146.33h17.636c4.143,0,7.5-3.357,7.5-7.5V97.855  C510.726,93.713,507.368,90.355,503.226,90.355z M323.282,31.922h-48.194V15h58.546c10.522,0,19.081,8.559,19.081,19.081v56.274  h-16.922V44.432C335.793,37.534,330.181,31.922,323.282,31.922z M100.301,235.371c44.963-20.5,94.487-20.499,139.448,0  c47.514,21.662,76.009,57.671,84.704,107.041c-0.245,5.652-4.08,10.323-8.593,10.323H94.418c-4.142,0-7.5,3.357-7.5,7.5  c0,4.143,3.358,7.5,7.5,7.5h213.725c3.487,0,6.325,3.012,6.325,6.713s-2.838,6.713-6.325,6.713H31.906  c-3.487,0-6.325-3.012-6.325-6.713s2.837-6.713,6.325-6.713h32.512c4.142,0,7.5-3.357,7.5-7.5c0-4.143-3.358-7.5-7.5-7.5H24.19  c-4.513,0-8.348-4.671-8.593-10.323C24.292,293.042,52.786,257.033,100.301,235.371z M15.584,474.452v-18.511  c0-2.386,1.941-4.327,4.327-4.327h217.677c4.142,0,7.5-3.357,7.5-7.5c0-4.142-3.358-7.5-7.5-7.5H37.189  c-6.412,0-11.629-5.217-11.629-11.629V407.79c0-6.412,5.217-11.629,11.629-11.629h265.628c6.412,0,11.629,5.217,11.629,11.629  v17.195c0,6.412-5.217,11.629-11.629,11.629h-35.23c-4.143,0-7.5,3.358-7.5,7.5c0,4.143,3.357,7.5,7.5,7.5h52.55  c2.386,0,4.327,1.941,4.327,4.327v18.511c0,12.052-9.805,21.857-21.856,21.857H37.441C25.389,496.31,15.584,486.504,15.584,474.452z   M495.726,131.33h-75.887c-4.143,0-7.5,3.357-7.5,7.5c0,4.143,3.357,7.5,7.5,7.5h50.647l-38.954,330.116  c-1.336,11.324-10.942,19.863-22.346,19.863h-76.925c4.523-6.12,7.203-13.681,7.203-21.857v-18.511  c0-8.519-5.547-15.754-13.213-18.32c2.036-3.762,3.195-8.066,3.195-12.636V407.79c0-6.735-2.518-12.889-6.656-17.584  c4.107-3.96,6.677-9.558,6.677-15.758c0-3.55-0.846-6.9-2.336-9.862c7.341-4.396,12.333-12.945,12.333-22.75  c0-0.426-0.036-0.852-0.108-1.272c-9.309-54.138-41.602-95.232-93.386-118.842c-6.574-2.997-13.24-5.579-19.97-7.772l-7.979-67.621  h171.817c4.142,0,7.5-3.357,7.5-7.5c0-4.143-3.358-7.5-7.5-7.5H192.782v-25.975h302.943V131.33z"/>















</svg>
