<svg xmlns="http://www.w3.org/2000/svg" viewBox="0 0 511.3 511.3" width="512" height="512"><style>.a{fill:#FFDF65;}.b{fill:#FFCD2C;}.c{fill:#FFBB64;}.d{fill:#FFAD47;}</style><path d="M484.5 133.8c-1.4-1.6-3.5-2.5-5.6-2.5H209.6c-2.1 0-4.2 0.9-5.6 2.5 -1.4 1.6-2.1 3.7-1.8 5.9l39.9 338.5c2.2 18.9 18.2 33.1 37.2 33.1h129.9c19 0 35-14.2 37.2-33.1l39.9-338.5C486.6 137.6 486 135.4 484.5 133.8z" fill="#FF3D43"/><path d="M484.5 133.8c-1.4-1.6-3.5-2.5-5.6-2.5H445.2c2.1 0 4.2 0.9 5.6 2.5 1.4 1.6 2.1 3.7 1.8 5.9l-39.9 338.5c-2.2 18.9-18.2 33.1-37.2 33.1h33.7c19 0 35-14.2 37.2-33.1l39.9-338.5C486.6 137.6 486 135.4 484.5 133.8z" fill="#D72E2E"/><path d="M302.8 381.2H37.2c-14.7 0-26.6 11.9-26.6 26.6v17.2c0 14.7 11.9 26.6 26.6 26.6h265.6c14.7 0 26.6-11.9 26.6-26.6V407.8C329.4 393.1 317.5 381.2 302.8 381.2z" fill="#A58260"/><path d="M302.8 381.2h-35.4c14.7 0 26.6 11.9 26.6 26.6v17.2c0 14.7-11.9 26.6-26.6 26.6h35.4c14.7 0 26.6-11.9 26.6-26.6V407.8C329.4 393.1 317.5 381.2 302.8 381.2z" fill="#8C6B50"/><path d="M308.1 353.1H31.9c-11.8 0-21.3 9.6-21.3 21.3 0 11.8 9.6 21.3 21.3 21.3h276.2c11.8 0 21.3-9.6 21.3-21.3C329.5 362.7 319.9 353.1 308.1 353.1z" class="a"/><path d="M308.1 353.1h-35.4c11.8 0 21.3 9.6 21.3 21.3 0 11.8-9.6 21.3-21.3 21.3h35.4c11.8 0 21.3-9.6 21.3-21.3C329.5 362.7 319.9 353.1 308.1 353.1z" class="b"/><path d="M320.1 436.6H19.9c-10.7 0-19.3 8.7-19.3 19.3v18.5c0 20.3 16.5 36.9 36.9 36.9h265.2c20.3 0 36.9-16.5 36.9-36.9v-18.5C339.5 445.3 330.8 436.6 320.1 436.6z" class="c"/><path d="M339.4 340.6c-9.3-54.1-41.6-95.2-93.4-118.8 -49-22.3-102.9-22.3-151.9 0 -51.8 23.6-84.1 64.7-93.4 118.8 -0.1 0.4-0.1 0.8-0.1 1.3 0 14.3 10.6 25.9 23.6 25.9h291.7c13 0 23.6-11.6 23.6-25.9C339.5 341.4 339.4 341 339.4 340.6z" class="c"/><path d="M320.1 436.6H284.5c10.7 0 19.3 8.7 19.3 19.3v18.5c0 20.3-16.5 36.9-36.9 36.9h35.7c20.3 0 36.9-16.5 36.9-36.9v-18.5C339.5 445.3 330.8 436.6 320.1 436.6z" class="d"/><path d="M339.4 340.6c-9.3-54.1-41.6-95.2-93.4-118.8 -30.2-13.7-62.2-19-93.8-15.8 19.7 2 39.3 7.3 58.1 15.8 51.8 23.6 84.1 64.7 93.4 118.8 0.1 0.4 0.1 0.8 0.1 1.3 0 14.3-10.6 25.9-23.6 25.9h35.7c13 0 23.6-11.6 23.6-25.9C339.5 341.4 339.4 341 339.4 340.6z" class="d"/><path d="M333.6 0h-66c-4.1 0-7.5 3.4-7.5 7.5v31.9c0 4.1 3.4 7.5 7.5 7.5h53.2v50.9c0 4.1 3.4 7.5 7.5 7.5h31.9c4.1 0 7.5-3.4 7.5-7.5V34.1C367.7 15.3 352.4 0 333.6 0z" fill="#E0E0E0"/><path d="M320.8 70.9v27c0 4.1 3.4 7.5 7.5 7.5h31.9c4.1 0 7.5-3.4 7.5-7.5v-27H320.8z" fill="#C4C4C4"/><path d="M503.2 90.4H185.3c-4.1 0-7.5 3.4-7.5 7.5v41c0 4.1 3.4 7.5 7.5 7.5h317.9c4.1 0 7.5-3.4 7.5-7.5V97.9C510.7 93.7 507.4 90.4 503.2 90.4z" class="a"/><path d="M503.2 90.4h-27v56h27c4.1 0 7.5-3.4 7.5-7.5V97.9C510.7 93.7 507.4 90.4 503.2 90.4z" class="b"/></svg>
