<svg xmlns="http://www.w3.org/2000/svg" viewBox="0 0 511.3 511.3" width="512" height="512"><path d="M503.2 90.4H367.7V34.1C367.7 15.3 352.4 0 333.6 0h-66c-4.1 0-7.5 3.4-7.5 7.5v31.9c0 4.1 3.4 7.5 7.5 7.5h53.2v43.4H185.3c-4.1 0-7.5 3.4-7.5 7.5v41c0 4.1 3.4 7.5 7.5 7.5h17.6l7.5 63.3c-38.7-8.9-79-4.9-116.3 12.1 -51.8 23.6-84.1 64.7-93.4 118.8 -0.1 0.4-0.1 0.8-0.1 1.3 0 9.8 5 18.4 12.3 22.8 -1.5 3-2.3 6.3-2.3 9.9 0 6.2 2.6 11.8 6.7 15.7 -4.1 4.7-6.7 10.9-6.7 17.6v17.2c0 4.6 1.2 8.9 3.2 12.6 -7.6 2.6-13.2 9.8-13.2 18.3v18.5c0 20.3 16.5 36.9 36.9 36.9h265.2 106.6c19 0 35-14.2 37.2-33.1L485.6 146.3h17.6c4.1 0 7.5-3.4 7.5-7.5V97.9C510.7 93.7 507.4 90.4 503.2 90.4zM323.3 31.9h-48.2V15h58.5c10.5 0 19.1 8.6 19.1 19.1v56.3h-16.9V44.4C335.8 37.5 330.2 31.9 323.3 31.9zM100.3 235.4c45-20.5 94.5-20.5 139.4 0 47.5 21.7 76 57.7 84.7 107 -0.2 5.7-4.1 10.3-8.6 10.3H94.4c-4.1 0-7.5 3.4-7.5 7.5 0 4.1 3.4 7.5 7.5 7.5h213.7c3.5 0 6.3 3 6.3 6.7s-2.8 6.7-6.3 6.7H31.9c-3.5 0-6.3-3-6.3-6.7s2.8-6.7 6.3-6.7h32.5c4.1 0 7.5-3.4 7.5-7.5 0-4.1-3.4-7.5-7.5-7.5H24.2c-4.5 0-8.3-4.7-8.6-10.3C24.3 293 52.8 257 100.3 235.4zM15.6 474.5v-18.5c0-2.4 1.9-4.3 4.3-4.3h217.7c4.1 0 7.5-3.4 7.5-7.5 0-4.1-3.4-7.5-7.5-7.5H37.2c-6.4 0-11.6-5.2-11.6-11.6V407.8c0-6.4 5.2-11.6 11.6-11.6h265.6c6.4 0 11.6 5.2 11.6 11.6v17.2c0 6.4-5.2 11.6-11.6 11.6h-35.2c-4.1 0-7.5 3.4-7.5 7.5 0 4.1 3.4 7.5 7.5 7.5h52.6c2.4 0 4.3 1.9 4.3 4.3v18.5c0 12.1-9.8 21.9-21.9 21.9H37.4C25.4 496.3 15.6 486.5 15.6 474.5zM495.7 131.3h-75.9c-4.1 0-7.5 3.4-7.5 7.5 0 4.1 3.4 7.5 7.5 7.5h50.6l-39 330.1c-1.3 11.3-10.9 19.9-22.3 19.9h-76.9c4.5-6.1 7.2-13.7 7.2-21.9v-18.5c0-8.5-5.5-15.8-13.2-18.3 2-3.8 3.2-8.1 3.2-12.6V407.8c0-6.7-2.5-12.9-6.7-17.6 4.1-4 6.7-9.6 6.7-15.8 0-3.5-0.8-6.9-2.3-9.9 7.3-4.4 12.3-12.9 12.3-22.7 0-0.4 0-0.9-0.1-1.3 -9.3-54.1-41.6-95.2-93.4-118.8 -6.6-3-13.2-5.6-20-7.8l-8-67.6h171.8c4.1 0 7.5-3.4 7.5-7.5 0-4.1-3.4-7.5-7.5-7.5H192.8v-26h302.9V131.3z"/></svg>
 