<?xml version="1.0" encoding="iso-8859-1"?>
<!-- Generator: Adobe Illustrator 18.0.0, SVG Export Plug-In . SVG Version: 6.00 Build 0)  -->
<!DOCTYPE svg PUBLIC "-//W3C//DTD SVG 1.1//EN" "http://www.w3.org/Graphics/SVG/1.1/DTD/svg11.dtd">
<svg version="1.1" id="Capa_1" xmlns="http://www.w3.org/2000/svg" xmlns:xlink="http://www.w3.org/1999/xlink" x="0px" y="0px"
	 viewBox="0 0 59.185 59.185" style="enable-background:new 0 0 59.185 59.185;" xml:space="preserve">
<g>
	<path d="M54.221,44.505l0.406-1.107c0.343-0.936,0.447-2.095,0.329-3.649c-0.031-0.412-0.08-0.808-0.127-1.188
		c-0.172-1.386-0.241-2.211,0.35-3.075c0.189-0.277,0.585-0.749,1.004-1.248c1.692-2.015,2.889-3.535,2.889-4.758
		c0-1.224-1.199-2.746-2.893-4.763c-0.418-0.497-0.813-0.967-1.001-1.243c-0.59-0.863-0.521-1.689-0.349-3.074
		c0.047-0.382,0.096-0.776,0.127-1.188c0.338-4.441-1.015-5.2-3.284-5.921c-1.108-0.353-2.365-0.752-3.752-2.139
		c-1.386-1.387-1.786-2.643-2.138-3.751c-0.721-2.27-1.48-3.615-5.921-3.284c-0.412,0.031-0.806,0.08-1.187,0.128
		c-1.385,0.171-2.212,0.24-3.076-0.349c-0.275-0.188-0.744-0.582-1.24-0.999C32.34,1.2,30.817,0,29.592,0
		c-1.225,0-2.748,1.2-4.766,2.896c-0.496,0.417-0.965,0.811-1.24,0.999c-0.863,0.588-1.689,0.519-3.075,0.349
		c-0.381-0.048-0.776-0.097-1.188-0.128c-4.436-0.34-5.199,1.014-5.92,3.283c-0.353,1.108-0.752,2.365-2.139,3.753
		c-1.387,1.386-2.643,1.785-3.751,2.138C5.243,14.01,3.89,14.769,4.228,19.21c0.032,0.412,0.081,0.807,0.128,1.188
		c0.173,1.386,0.242,2.212-0.348,3.074C3.82,23.747,3.427,24.215,3.01,24.71c-1.696,2.02-2.897,3.543-2.897,4.769
		c0,1.224,1.199,2.745,2.891,4.761c0.418,0.498,0.814,0.969,1.003,1.246c0.59,0.863,0.521,1.689,0.349,3.075
		c-0.047,0.382-0.096,0.776-0.128,1.188c-0.338,4.44,1.016,5.199,3.285,5.92c1.108,0.353,2.365,0.751,3.751,2.138
		s1.786,2.644,2.139,3.752c0.721,2.27,1.479,3.616,5.92,3.284c0.413-0.031,0.808-0.08,1.19-0.128
		c1.384-0.174,2.21-0.242,3.073,0.349c0.276,0.189,0.746,0.584,1.244,1.001c2.017,1.694,3.539,2.893,4.762,2.894
		c1.224,0,2.745-1.198,4.761-2.892c0.499-0.418,0.969-0.813,1.246-1.003c0.867-0.593,1.696-0.522,3.085-0.35
		c0.332,0.042,0.674,0.084,1.028,0.115l1.589,0.14l-8.62-22.672L54.221,44.505z M34.47,53.412c-0.358,0.245-0.843,0.652-1.404,1.123
		c-0.853,0.716-2.85,2.393-3.472,2.423c-0.628-0.03-2.626-1.708-3.479-2.425c-0.56-0.47-1.043-0.876-1.4-1.12
		c-0.94-0.644-1.863-0.822-2.769-0.822c-0.567,0-1.127,0.07-1.681,0.14c-0.351,0.043-0.715,0.089-1.095,0.118
		c-3.182,0.241-3.34-0.253-3.862-1.896c-0.379-1.194-0.899-2.829-2.63-4.561c-1.731-1.73-3.366-2.25-4.56-2.63
		c-1.642-0.521-2.138-0.68-1.896-3.861c0.029-0.379,0.075-0.742,0.118-1.093c0.179-1.437,0.364-2.922-0.682-4.452
		c-0.245-0.358-0.652-0.843-1.123-1.403c-0.716-0.853-2.393-2.85-2.423-3.472c0.03-0.63,1.711-2.631,2.429-3.484
		c0.468-0.558,0.873-1.039,1.117-1.396c1.045-1.53,0.86-3.016,0.681-4.451c-0.043-0.351-0.089-0.714-0.118-1.093
		c-0.242-3.184,0.254-3.341,1.896-3.862c1.194-0.38,2.829-0.899,4.56-2.63c1.731-1.731,2.251-3.367,2.631-4.562
		c0.521-1.642,0.679-2.139,3.861-1.895c0.379,0.029,0.743,0.074,1.093,0.118c1.437,0.179,2.921,0.364,4.451-0.683
		c0.357-0.244,0.839-0.649,1.397-1.118C26.966,3.71,28.966,2.03,29.59,2c0.629,0.03,2.628,1.71,3.481,2.427
		c0.559,0.469,1.041,0.874,1.398,1.119c1.53,1.045,3.015,0.858,4.452,0.682c0.35-0.044,0.713-0.089,1.092-0.118
		c3.183-0.239,3.341,0.254,3.862,1.896c0.379,1.194,0.899,2.829,2.63,4.56c1.731,1.731,3.366,2.251,4.56,2.63
		c1.643,0.522,2.138,0.68,1.896,3.863c-0.029,0.38-0.074,0.743-0.118,1.094c-0.178,1.436-0.363,2.92,0.683,4.45
		c0.245,0.357,0.651,0.841,1.121,1.4c0.716,0.854,2.394,2.851,2.424,3.474c-0.03,0.628-1.706,2.622-2.421,3.475
		c-0.472,0.562-0.879,1.048-1.125,1.406c-1.045,1.53-0.861,3.014-0.683,4.449c0.044,0.352,0.089,0.715,0.118,1.095
		c0.046,0.61,0.054,1.143,0.02,1.604l-3.466-1.964c0.068-0.072,0.136-0.144,0.181-0.237c1.46-3.007,2.201-6.237,2.201-9.604
		c0-12.134-9.872-22.006-22.005-22.006c-12.134,0-22.006,9.872-22.006,22.006s9.872,22.006,22.006,22.006
		c2.59,0,5.109-0.469,7.516-1.345l0.872,2.293C37.045,52.521,35.773,52.521,34.47,53.412z M36.699,48.491
		c-2.18,0.79-4.461,1.213-6.806,1.213c-11.031,0-20.006-8.975-20.006-20.006S18.862,9.692,29.893,9.692
		c11.031,0,20.005,8.975,20.005,20.006c0,3.062-0.673,5.999-2,8.729c-0.027,0.055-0.028,0.113-0.044,0.17L28.84,27.82L36.699,48.491
		z"/>
	<path d="M30.333,22.828c0.256,0,0.512-0.098,0.707-0.293c2.725-2.726,2.726-7.16,0-9.887c-0.391-0.391-1.023-0.391-1.414,0
		c-1.321,1.321-2.049,3.077-2.049,4.943c0,1.867,0.728,3.622,2.049,4.943C29.821,22.73,30.077,22.828,30.333,22.828z M30.333,14.975
		c0.987,1.601,0.987,3.633,0,5.233c-0.484-0.781-0.756-1.676-0.756-2.617C29.577,16.651,29.848,15.756,30.333,14.975z"/>
	<path d="M29.626,47.245c0.195,0.195,0.451,0.293,0.707,0.293s0.512-0.098,0.707-0.293c2.726-2.726,2.726-7.159,0-9.885
		c-0.391-0.391-1.023-0.391-1.414,0c-1.321,1.321-2.049,3.076-2.049,4.942S28.304,45.924,29.626,47.245z M30.333,39.687
		c0.987,1.6,0.987,3.632,0,5.231c-0.484-0.78-0.756-1.675-0.756-2.616S29.848,40.467,30.333,39.687z"/>
	<path d="M37.745,29.239c-0.391,0.391-0.391,1.023,0,1.414c1.321,1.321,3.076,2.05,4.943,2.05c1.866,0,3.622-0.729,4.943-2.05
		c0.391-0.391,0.391-1.023,0-1.414C44.905,26.515,40.47,26.515,37.745,29.239z M40.072,29.947c1.6-0.987,3.632-0.988,5.233,0
		c-0.781,0.485-1.676,0.757-2.617,0.757C41.748,30.703,40.853,30.431,40.072,29.947z"/>
	<path d="M22.921,30.653c0.391-0.391,0.391-1.023,0-1.414c-2.726-2.725-7.16-2.724-9.885,0c-0.391,0.391-0.391,1.023,0,1.414
		c1.321,1.321,3.076,2.05,4.942,2.05C19.844,32.703,21.6,31.975,22.921,30.653z M20.595,29.946
		c-0.781,0.485-1.676,0.757-2.617,0.757c-0.94,0-1.835-0.272-2.616-0.756C16.962,28.959,18.994,28.959,20.595,29.946z"/>
	<path d="M36.074,25.205C36.074,25.205,36.074,25.205,36.074,25.205c3.854-0.001,6.99-3.137,6.99-6.99c0-0.553-0.448-1-1-1
		c-3.854,0-6.99,3.136-6.99,6.99C35.074,24.758,35.522,25.205,36.074,25.205z M40.919,19.36c-0.433,1.829-1.87,3.265-3.699,3.699
		C37.653,21.23,39.09,19.793,40.919,19.36z"/>
	<path d="M24.592,34.369c-0.001,0-0.001,0-0.002,0c-1.867,0-3.623,0.886-4.941,2.206c-1.32,1.319-2.047,3.235-2.046,5.103
		c0,0.553,0.448,1,1,1c3.854,0,6.99-3.136,6.99-6.989c0-0.057-0.023-0.105-0.032-0.16c0.009-0.054,0.032-0.103,0.032-0.16
		C25.592,34.817,25.144,34.369,24.592,34.369z M19.716,40.542c0.198-0.958,0.655-1.862,1.347-2.553
		c0.681-0.681,1.526-1.22,2.445-1.468C23.17,38.508,21.664,40.094,19.716,40.542z"/>
	<path d="M23.546,19.262c-1.319-1.32-3.075-2.047-4.943-2.047c-0.552,0-1,0.447-1,1c0,0,0.004,0.013,0.004,0.021
		c0,0-0.004,0.013-0.004,0.021c0,1.868,0.727,3.665,2.046,4.986c1.319,1.318,3.074,2.127,4.941,2.127c0.001,0,0.001,0,0.002,0
		c0.552,0,1-0.448,1-1c0-0.029-0.014-0.054-0.017-0.083c0.002-0.029,0.017-0.053,0.017-0.083
		C25.593,22.336,24.865,20.581,23.546,19.262z M19.739,19.357c0.898,0.208,1.726,0.651,2.393,1.318
		c0.707,0.707,1.175,1.588,1.365,2.548c-0.914-0.226-1.756-0.715-2.434-1.392C20.39,21.16,19.945,20.286,19.739,19.357z"/>
	<path d="M46.091,59.185l0.837-0.251c0.271-0.081,6.693-2.081,9.658-9.645l0.306-0.78L35.235,35.25L46.091,59.185z M39.748,40.357
		l10.512,6.436c-0.001,0.014-0.008,0.026-0.008,0.04c0,3.09-2.156,5.63-4.893,5.894L39.748,40.357z M47.158,56.695l-0.942-2.077
		c3.088-0.608,5.503-3.292,5.952-6.656l2.231,1.366C52.321,53.914,48.749,55.973,47.158,56.695z"/>
</g>
<g>
</g>
<g>
</g>
<g>
</g>
<g>
</g>
<g>
</g>
<g>
</g>
<g>
</g>
<g>
</g>
<g>
</g>
<g>
</g>
<g>
</g>
<g>
</g>
<g>
</g>
<g>
</g>
<g>
</g>
</svg>
