<svg xmlns="http://www.w3.org/2000/svg" viewBox="0 0 510.8 510.8"><style>.a{stop-color:#D4E1F4;}.b{stop-color:#DAE4F4;}.c{stop-color:#EBEBF4;}.d{stop-color:#F6F1F4;}.e{stop-color:#FDF4F4;}.f{stop-color:#FFF5F4;}</style><polygon points="255.4 21 331.5 175.2 501.6 199.9 378.5 319.9 407.6 489.4 255.4 409.4 103.2 489.4 132.3 319.9 9.1 199.9 179.3 175.2 " fill="#A4C2F7"/><linearGradient gradientUnits="userSpaceOnUse" x1="-49.4" y1="655.2" x2="-48.7" y2="654.5" gradientTransform="matrix(453.5826 0 0 -431.8236 22463.8008 283067.9375)"><stop offset="0" class="a"/><stop offset="0.1717" class="a"/><stop offset="0.2" class="a"/><stop offset="0.2001" class="b"/><stop offset="0.2007" class="c"/><stop offset="0.2014" class="d"/><stop offset="0.2023" class="e"/><stop offset="0.205" class="f"/><stop offset="0.2522" class="f"/><stop offset="0.26" class="f"/><stop offset="0.26" class="a"/><stop offset="0.3974" class="a"/><stop offset="0.42" class="a"/><stop offset="0.4201" class="b"/><stop offset="0.4207" class="c"/><stop offset="0.4214" class="d"/><stop offset="0.4223" class="e"/><stop offset="0.425" class="f"/><stop offset="0.4894" class="f"/><stop offset="0.5" class="f"/><stop offset="0.5" stop-color="#F9F2F4"/><stop offset="0.5001" stop-color="#E8EBF4"/><stop offset="0.5003" stop-color="#DDE5F4"/><stop offset="0.5005" stop-color="#D6E2F4"/><stop offset="0.501" class="a"/><stop offset="0.7062" class="a"/><stop offset="0.74" class="a"/><stop offset="0.741" class="f"/><stop offset="0.8346" class="f"/><stop offset="0.85" class="f"/><stop offset="0.851" class="a"/></linearGradient><path d="M465.7 199.9l-170.2-24.7L237.1 57.6l-54.9 117.6L12.1 199.9l123.1 120 -29.1 169.5 121.8-75.3 16.3 6.1c0-0.1 0-0.3 0-0.4 1.6-5.2 6.9-8.2 12.2-6.9 11.5 2 22.5 6.5 32.1 13.2 1.4 1.1 2.6 2.4 3.4 4 1.5 0.6 2.8 1.7 3.7 3.1 1.2-0.5 2.6-0.8 3.9-0.8 4.2-0.2 7.9 2.6 8.9 6.6 3.3-1.9 7.4-1.7 10.5 0.6 3.1 2.3 4.4 6.2 3.5 9.9l51.7 19.4L342.6 319.9 465.7 199.9z" fill="url(#SVGID_1_)"/><path d="M179.4 175.2L9.3 199.9l123.1 120 -29.1 169.5 43.7-23c-0.2-0.3-0.4-0.7-0.6-1.1l-9.8 3.7 31.7-149.1L45.2 199.9l127.9-23.5L179.4 175.2z" fill="#FFF"/><path d="M407.6 498.5c-1.5 0-2.9-0.4-4.3-1.1l-147.9-77.8 -147.9 77.8c-3.1 1.6-6.8 1.4-9.6-0.7s-4.2-5.5-3.6-8.9l28.3-164.7L2.8 206.4c-2.5-2.4-3.4-6.1-2.3-9.4s3.9-5.7 7.4-6.2l165.4-24 74-149.9c1.7-2.9 4.8-4.7 8.2-4.7 3.4 0 6.5 1.8 8.2 4.7l74 149.9 165.4 24c3.4 0.5 6.3 2.9 7.4 6.2s0.2 6.9-2.3 9.4L388.3 323.1l28.3 164.7c0.5 2.7-0.3 5.4-2 7.4C412.8 497.3 410.3 498.5 407.6 498.5L407.6 498.5zM255.4 400.2c1.5 0 2.9 0.4 4.3 1.1l135.8 71.4 -25.9-151.2c-0.5-3 0.5-6 2.6-8.1l109.9-107.1 -151.8-22.1c-3-0.4-5.6-2.3-6.9-5L255.4 41.7l-67.9 137.6c-1.3 2.7-3.9 4.6-6.9 5L28.8 206.3l109.9 107.1c2.2 2.1 3.1 5.1 2.6 8.1L115.3 472.7l135.8-71.4C252.4 400.6 253.9 400.2 255.4 400.2z" fill="#428DFF"/></svg>