<svg xmlns="http://www.w3.org/2000/svg" viewBox="0 0 49.8 49.8"><style>.a{fill:#C64940;}</style><path d="M1 38.9c0 0 3.2 6.9 11.4 9.6 1.8 0.6 3.8 0.8 5.7 0.9 7.9 0.7 26.7-1 31.1-19 1.4-5.7 0.8-11.6-1.4-17C44.5 5.7 37.4-4.2 22.8 2.4c-8.3 3.8-7.7 10.3-5.9 14.8 2.2 5.5-2.2 11.1-8.1 10.3C1.7 26.6-1.8 30.9 1 38.9z" fill="#994530"/><path d="M4.7 37.2c0.4 0.8 3.1 5.6 9.1 7.6 1.3 0.4 2.9 0.6 4.5 0.7l0.3 0c0.8 0.1 1.7 0.1 2.6 0.1 18.2 0 22.9-11.2 24-16 1.1-4.7 0.7-9.7-1.2-14.5C41 7.9 36.9 4.2 31.5 4.2c-2.2 0-4.7 0.6-7.3 1.8 -3 1.4-6.7 3.9-4.1 10.4 1.3 3.3 0.9 6.7-1 9.6 -2.2 3.2-6 4.9-9.9 4.4 -0.5-0.1-1-0.1-1.4-0.1 -1.1 0-2.5 0.2-3.2 1.1C3.8 32.5 3.8 34.6 4.7 37.2z" fill="#D75A4A"/><path d="M21.2 46.6c-0.9 0-1.9 0-2.7-0.1l-0.3 0c-1.7-0.1-3.3-0.3-4.7-0.8 -6.4-2.1-9.2-7.1-9.7-8l-0.1-0.1c-1-2.9-1-5.3 0-6.6 0.9-1.3 2.9-1.8 5.5-1.5 3.5 0.5 7-1.1 8.9-4 1.7-2.6 2.1-5.7 0.9-8.7 -3.2-8.1 2.7-10.8 4.6-11.6 9.7-4.4 16.8-1.2 21.2 9.5 2 5 2.5 10.2 1.3 15.1C45 34.8 40.1 46.6 21.2 46.6zM5.6 36.8c0.4 0.8 2.9 5.2 8.5 7 1.2 0.4 2.7 0.5 4.3 0.7l0.3 0c0.8 0.1 1.6 0.1 2.5 0.1 17.5 0 21.9-10.7 23-15.3 1.1-4.5 0.7-9.3-1.2-13.9C40.3 8.7 36.4 5.2 31.5 5.2c-2.1 0-4.4 0.6-6.9 1.7 -3 1.4-5.8 3.5-3.6 9.1 1.4 3.6 1 7.4-1.1 10.5 -2.4 3.5-6.6 5.4-10.9 4.8 -1.8-0.2-3.2 0-3.6 0.6C4.9 32.6 4.8 34.2 5.6 36.8z" class="a"/><circle cx="32.5" cy="12.8" r="4" fill="#E6E6E6"/><path d="M32.5 17.8c-2.8 0-5-2.2-5-5s2.2-5 5-5 5 2.2 5 5S35.2 17.8 32.5 17.8zM32.5 9.8c-1.7 0-3 1.3-3 3s1.3 3 3 3 3-1.3 3-3S34.1 9.8 32.5 9.8z" fill="#7A3726"/><path d="M25.6 45.7l-1.9-0.5c0.4-1.8-1.1-3.2-3.4-4.9 -2.9-2-4.8-5.1-5.3-8.6 -0.2-1.3-0.4-2.3-0.4-2.3l1.9-0.5c0 0 1.1 3.1 4 4.3 2.1 0.9 4.7 0.6 7.6-0.8 11.6-5.6 17.1-2.6 17.3-2.5l-1 1.8c0 0-5-2.5-15.5 2.6 -3.5 1.7-6.7 2-9.3 0.9 -0.8-0.3-1.5-0.8-2.1-1.3 0.8 2 2.1 3.7 3.9 4.9C23.1 39.9 26.5 42.2 25.6 45.7z" class="a"/><path d="M27.1 27.6c-5.4 0-7.6-3.7-7.6-3.7l1.7-1 -0.9 0.5 0.9-0.5c0.1 0.2 2.7 4.3 9.7 2.1 1.5-0.8 12-6 15.6-2.3l-1.4 1.4c-2-2.1-9.2 0.6-13.3 2.7l-0.2 0.1C29.9 27.4 28.4 27.6 27.1 27.6z" class="a"/></svg>