<svg xmlns="http://www.w3.org/2000/svg" viewBox="0 0 51.8 51.8"><path d="M49.6 14.1C47.7 9.6 44.3 3.7 38.4 1.3c-4.3-1.7-9.4-1.3-15 1.2 -7 3.2-9.3 8.9-6.4 16.1 0.9 2.2 0.5 4.7-0.9 6.5 -1.4 1.8-3.7 2.8-6.1 2.5 -3.8-0.5-6.7 0.4-8.4 2.5 -1.3 1.6-2.5 4.7-0.6 10.2l0 0.1c0.1 0.3 3.5 7.4 12 10.2 1.8 0.6 3.8 0.8 5.6 0.9l0.3 0c0.6 0.1 1.7 0.1 3.1 0.1 3.4 0 8.9-0.4 14.3-2.7 7.9-3.2 12.8-9 14.8-17.2C52.5 26 51.9 19.9 49.6 14.1zM49.1 31.3c-1.8 7.5-6.4 12.8-13.6 15.8 -7.1 2.9-14.3 2.6-16.4 2.4l-0.3 0c-1.8-0.2-3.5-0.3-5.1-0.8C6.3 46.2 3.2 40.1 2.9 39.5c-1.2-3.6-1.2-6.5 0.2-8.2 1.3-1.5 3.5-2.1 6.6-1.7 3.1 0.4 6.1-0.8 7.9-3.2 1.9-2.4 2.3-5.6 1.2-8.5 -2.5-6.2-0.6-10.8 5.4-13.5 5.1-2.3 9.6-2.7 13.4-1.2 5.3 2.1 8.4 7.5 10.1 11.7C49.9 20.3 50.4 25.9 49.1 31.3z"/><path d="M33.5 18.8c2.8 0 5-2.2 5-5s-2.2-5-5-5 -5 2.2-5 5S30.7 18.8 33.5 18.8zM33.5 10.8c1.7 0 3 1.3 3 3s-1.3 3-3 3c-1.7 0-3-1.3-3-3S31.8 10.8 33.5 10.8z"/><path d="M47.8 24.2c-0.1-2.9-0.7-5.7-1.9-8.6C41.6 5 34.4 1.8 24.7 6.2c-1.9 0.9-7.8 3.6-4.6 11.6 1.2 2.9 0.8 6.1-0.9 8.7 -2 2.9-5.4 4.4-8.9 4 -2.6-0.4-4.6 0.2-5.5 1.5 -1 1.4-1 3.7 0 6.6l0.1 0.1c0.5 1 3.3 5.9 9.7 8 1.4 0.5 3 0.6 4.7 0.8l0.3 0c0.8 0.1 1.8 0.1 2.7 0.1 18.9 0 23.8-11.8 25-16.8 0.5-2.1 0.7-4.2 0.6-6.4C47.8 24.4 47.8 24.3 47.8 24.2zM25.6 8c2.5-1.2 4.9-1.7 6.9-1.7 4.9 0 8.8 3.4 11.5 10.2 0.8 2 1.3 4.1 1.6 6.2 -4.5-1.3-12.4 2.7-13.7 3.3 -6 1.9-8.8-0.8-9.5-1.8 0.6-2.3 0.5-4.8-0.4-7.1C19.8 11.5 22.6 9.4 25.6 8zM20.8 27.6c0.3-0.4 0.6-0.9 0.8-1.4 1.2 1.1 3.3 2.4 6.5 2.4 1.3 0 2.8-0.2 4.5-0.8 0.1 0 0.1 0 0.2-0.1 3.9-2.1 10.8-4.5 13.1-2.9 0 1.9-0.1 3.7-0.6 5.5 0 0 0 0.1 0 0.1 -2.2-0.6-7.5-1.2-16.2 3 -3 1.4-5.6 1.7-7.6 0.8 -2-0.8-3.2-2.6-3.7-3.6C18.9 29.8 20 28.8 20.8 27.6zM19.7 45.5l-0.3 0c-1.6-0.1-3-0.3-4.3-0.7 -5.6-1.8-8.1-6.2-8.5-7 -0.9-2.6-0.7-4.2-0.3-4.8 0.4-0.6 1.8-0.9 3.6-0.6 2 0.3 4 0 5.7-0.7 0.1 0.3 0.1 0.7 0.2 1.1 0.5 3.5 2.5 6.6 5.3 8.6 2.1 1.4 3.4 2.7 3.5 4.2 -0.8 0.1-1.7 0.1-2.6 0.1C21.3 45.6 20.4 45.6 19.7 45.5zM26.7 45.3c-0.2-2.7-2.8-4.6-4.4-5.6 -1.8-1.2-3.1-2.9-3.9-4.9 0.6 0.5 1.3 0.9 2.1 1.3 2.6 1.1 5.8 0.8 9.3-0.9 8.2-3.9 13-3.3 14.7-2.8C43 36.9 38.5 43.9 26.7 45.3z"/></svg>